<svg width="476" height="424" viewBox="0 0 476 424" fill="none" xmlns="http://www.w3.org/2000/svg">
<rect width="476" height="424" fill="#EDEFF3"/>
<rect data-block-name="3" x="193.772" y="91.8236" width="84.5" height="101.353" fill="#CACFDA"/>
<path data-block-name="4" d="M284.125 91.8236H345.175L362.839 100.706V193.176H284.125V91.8236Z" fill="#CACFDA"/>
<path data-block-name="5" d="M369.604 100.826H391.724L417.958 117.129V193.176H369.604V100.826Z" fill="#CACFDA"/>
<rect data-block-name="8" x="193.772" y="231.808" width="84.5" height="51" fill="#CACFDA"/>
<rect data-block-name="9" x="284.272" y="231.808" width="78.71" height="51" fill="#CACFDA"/>
<rect data-block-name="10" x="370.982" y="231.808" width="48.35" height="51" fill="#CACFDA"/>
<rect data-block-name="C" x="289.234" y="312.943" width="73.7481" height="66" fill="#CACFDA"/>
<rect data-block-name="C" x="289.234" y="346" width="73.7481" height="32.9431" fill="#CACFDA"/>
<rect data-block-name="D" x="371.531" y="312.943" width="48.35" height="66" fill="#CACFDA"/>
<rect data-block-name="D" x="371.531" y="346" width="48.35" height="32.9431" fill="#CACFDA"/>
<path data-block-name="2" d="M186.92 91.8236H125.869L108.206 100.706V193.176H186.92V91.8236Z" fill="#CACFDA"/>
<path data-block-name="1" d="M101.441 100.826H79.3213L53.0866 117.129V193.176H101.441V100.826Z" fill="#CACFDA"/>
<rect data-block-name="7" width="78.71" height="51" transform="matrix(-1 0 0 1 186.772 231.808)" fill="#CACFDA"/>
<rect data-block-name="6" width="48.35" height="51" transform="matrix(-1 0 0 1 100.062 231.808)" fill="#CACFDA"/>
<rect data-block-name="B" width="73.7481" height="66" transform="matrix(-1 0 0 1 181.811 312.943)" fill="#CACFDA"/>
<rect data-block-name="B" width="73.7481" height="32.9431" transform="matrix(-1 0 0 1 181.811 346)" fill="#CACFDA"/>
<rect data-block-name="A" width="48.35" height="66" transform="matrix(-1 0 0 1 99.5137 312.943)" fill="#CACFDA"/>
<rect data-block-name="A" width="48.35" height="32.9431" transform="matrix(-1 0 0 1 99.5137 346)" fill="#CACFDA"/>
<path d="M78.9014 138.559V147.751H76.9844V140.375H76.9336L74.8262 141.695V140.007L77.0986 138.559H78.9014Z" fill="white"/>
<path d="M75.989 262.435C74.0847 262.422 72.282 261.292 72.282 257.928C72.282 254.83 73.7674 252.989 76.0652 252.989C77.9187 252.989 79.1756 254.157 79.366 255.668H77.4871C77.3347 255.021 76.8015 254.627 76.0652 254.627C74.8211 254.627 74.1609 255.757 74.1482 257.56H74.2371C74.656 256.747 75.5701 256.265 76.5857 256.265C78.2361 256.265 79.4676 257.509 79.4676 259.235C79.4676 261.102 78.0584 262.447 75.989 262.435ZM75.9763 260.924C76.9158 260.924 77.614 260.213 77.614 259.286C77.614 258.372 76.9412 257.648 76.0017 257.648C75.0623 257.648 74.3513 258.385 74.3387 259.286C74.3513 260.188 75.0369 260.924 75.9763 260.924Z" fill="white"/>
<path d="M72.9837 350.943H70.9271L74.1136 341.752H76.5638L79.7376 350.943H77.6937L77.0081 348.823H73.6819L72.9837 350.943ZM74.1644 347.338H76.5257L75.3704 343.821H75.3069L74.1644 347.338Z" fill="white"/>
<path d="M141.572 350.943V341.752H145.229C147.26 341.752 148.275 342.729 148.275 344.113C148.275 345.192 147.577 345.865 146.625 346.081V346.17C147.666 346.22 148.644 347.046 148.644 348.404C148.644 349.864 147.552 350.943 145.47 350.943H141.572ZM145.089 349.369C146.193 349.369 146.663 348.912 146.663 348.226C146.663 347.452 146.079 346.906 145.14 346.906H143.477V349.369H145.089ZM144.949 345.598C145.749 345.598 146.346 345.154 146.346 344.418C146.346 343.758 145.863 343.3 144.987 343.3H143.477V345.598H144.949Z" fill="white"/>
<path d="M328.324 344.951C328.171 343.935 327.384 343.313 326.318 343.313C324.883 343.313 323.944 344.418 323.944 346.347C323.944 348.328 324.896 349.382 326.305 349.382C327.359 349.382 328.133 348.798 328.324 347.807L330.253 347.82C330.038 349.521 328.616 351.07 326.28 351.07C323.817 351.07 322.001 349.343 322.001 346.347C322.001 343.351 323.855 341.625 326.28 341.625C328.4 341.625 330 342.843 330.253 344.951H328.324Z" fill="white"/>
<path d="M395.16 350.943H391.923V341.752H395.198C397.966 341.752 399.654 343.478 399.654 346.335C399.654 349.216 397.966 350.943 395.16 350.943ZM393.827 349.305H395.084C396.836 349.305 397.75 348.391 397.75 346.335C397.75 344.291 396.836 343.389 395.097 343.389H393.827V349.305Z" fill="white"/>
<path d="M144.758 262.308L148.63 254.741V254.678H144.123V253.116H150.61V254.703L146.738 262.308H144.758Z" fill="white"/>
<path d="M236.016 262.435C233.921 262.435 232.411 261.33 232.411 259.832C232.411 258.677 233.299 257.737 234.442 257.56V257.496C233.452 257.306 232.766 256.468 232.766 255.465C232.766 254.03 234.137 252.989 236.016 252.989C237.895 252.989 239.266 254.03 239.279 255.465C239.266 256.481 238.568 257.306 237.603 257.496V257.56C238.72 257.737 239.622 258.677 239.622 259.832C239.622 261.33 238.111 262.435 236.016 262.435ZM236.016 260.975C236.981 260.975 237.628 260.429 237.628 259.642C237.628 258.842 236.956 258.258 236.016 258.258C235.077 258.258 234.391 258.842 234.404 259.642C234.391 260.429 235.039 260.975 236.016 260.975ZM236.016 256.912C236.829 256.912 237.413 256.392 237.413 255.655C237.413 254.944 236.841 254.437 236.016 254.437C235.191 254.437 234.632 254.932 234.632 255.655C234.632 256.392 235.204 256.912 236.016 256.912Z" fill="white"/>
<path d="M323.526 252.989C325.43 253.002 327.233 254.132 327.233 257.471C327.246 260.594 325.76 262.435 323.45 262.435C321.596 262.435 320.339 261.279 320.149 259.718H322.028C322.18 260.391 322.713 260.797 323.45 260.797C324.707 260.797 325.367 259.68 325.367 257.839H325.291C324.859 258.651 323.958 259.134 322.929 259.134C321.279 259.134 320.06 257.89 320.047 256.176C320.047 254.322 321.444 252.977 323.526 252.989ZM323.539 254.487C322.599 254.487 321.901 255.211 321.914 256.125C321.914 257.026 322.586 257.737 323.526 257.737C324.453 257.737 325.176 257.001 325.176 256.112C325.164 255.236 324.478 254.487 323.539 254.487Z" fill="white"/>
<path d="M392.504 253.116V262.308H390.587V254.932H390.536L388.429 256.252V254.564L390.701 253.116H392.504ZM398.204 262.435C395.906 262.435 394.51 260.721 394.51 257.712C394.51 254.703 395.906 252.989 398.204 252.989C400.502 252.989 401.899 254.716 401.899 257.712C401.899 260.733 400.502 262.435 398.204 262.435ZM398.204 260.86C399.271 260.86 399.956 259.832 399.944 257.712C399.944 255.617 399.271 254.551 398.204 254.551C397.138 254.551 396.465 255.617 396.465 257.712C396.452 259.832 397.138 260.86 398.204 260.86Z" fill="white"/>
<path d="M144.319 147.751L144.306 146.367L147.607 143.333C148.471 142.507 148.928 142 148.928 141.276C148.928 140.464 148.305 139.956 147.468 139.956C146.604 139.956 146.046 140.502 146.046 141.378H144.23C144.218 139.575 145.551 138.432 147.493 138.432C149.461 138.432 150.768 139.549 150.768 141.149C150.768 142.19 150.261 143.053 148.369 144.767L146.972 146.126V146.176H150.895V147.751H144.319Z" fill="white"/>
<path d="M235.997 147.878C233.979 147.878 232.531 146.76 232.493 145.161H234.423C234.461 145.846 235.121 146.303 236.01 146.303C236.924 146.303 237.584 145.783 237.571 145.047C237.584 144.297 236.911 143.764 235.832 143.764H234.981V142.355H235.832C236.733 142.355 237.368 141.86 237.368 141.136C237.368 140.438 236.835 139.956 236.022 139.956C235.21 139.956 234.537 140.413 234.512 141.111H232.684C232.709 139.524 234.144 138.432 236.022 138.432C237.939 138.432 239.222 139.562 239.209 141.022C239.222 142.05 238.498 142.787 237.47 142.964V143.041C238.815 143.206 239.564 144.031 239.552 145.173C239.564 146.748 238.066 147.878 235.997 147.878Z" fill="white"/>
<path d="M319.781 146.126V144.615L323.666 138.559H326.066V144.589H327.234V146.126H326.066V147.751H324.25V146.126H319.781ZM321.711 144.589H324.276V140.654H324.187L321.711 144.513V144.589Z" fill="white"/>
<path d="M393.807 147.878C391.89 147.878 390.493 146.748 390.455 145.161H392.309C392.347 145.884 393.007 146.367 393.807 146.367C394.759 146.367 395.432 145.694 395.432 144.742C395.432 143.764 394.746 143.091 393.781 143.079C393.096 143.079 392.613 143.333 392.334 143.853H390.607L391.103 138.559H396.765V140.121H392.677L392.423 142.444H392.499C392.842 141.987 393.527 141.67 394.34 141.67C396.028 141.67 397.285 142.926 397.285 144.691C397.285 146.545 395.876 147.878 393.807 147.878Z" fill="white"/>
<path d="M186.155 319.288C186.155 317.87 187.305 316.721 188.723 316.721H281.664C283.082 316.721 284.232 317.87 284.232 319.288V363.376C284.232 364.794 283.082 365.943 281.664 365.943H188.723C187.305 365.943 186.155 364.794 186.155 363.376V319.288Z" fill="#CACFDA"/>
<path d="M216.439 339.692C216.318 338.886 215.694 338.393 214.848 338.393C213.711 338.393 212.966 339.269 212.966 340.799C212.966 342.369 213.721 343.205 214.838 343.205C215.674 343.205 216.288 342.742 216.439 341.957L217.969 341.967C217.798 343.316 216.671 344.544 214.818 344.544C212.865 344.544 211.426 343.175 211.426 340.799C211.426 338.423 212.896 337.054 214.818 337.054C216.499 337.054 217.768 338.02 217.969 339.692H216.439ZM225.701 340.799C225.701 343.175 224.221 344.544 222.298 344.544C220.355 344.544 218.885 343.165 218.885 340.799C218.885 338.423 220.355 337.054 222.298 337.054C224.221 337.054 225.701 338.423 225.701 340.799ZM224.16 340.799C224.16 339.238 223.425 338.393 222.298 338.393C221.17 338.393 220.426 339.238 220.426 340.799C220.426 342.359 221.17 343.205 222.298 343.205C223.425 343.205 224.16 342.359 224.16 340.799ZM232.868 337.155V344.443H231.559L228.358 339.812H228.298V344.443H226.788V337.155H228.117L231.298 341.785H231.368V337.155H232.868ZM238.053 339.238C237.992 338.665 237.529 338.322 236.794 338.322C236.029 338.322 235.606 338.675 235.596 339.158C235.586 339.681 236.14 339.923 236.764 340.064L237.418 340.225C238.667 340.507 239.603 341.141 239.603 342.359C239.603 343.698 238.556 344.544 236.784 344.544C235.022 344.544 233.895 343.728 233.855 342.168H235.324C235.375 342.903 235.959 343.275 236.764 343.275C237.559 343.275 238.073 342.903 238.073 342.359C238.073 341.866 237.62 341.634 236.824 341.433L236.029 341.242C234.801 340.94 234.046 340.326 234.046 339.259C234.046 337.93 235.214 337.054 236.804 337.054C238.415 337.054 239.482 337.95 239.502 339.238H238.053ZM247.264 340.799C247.264 343.175 245.784 344.544 243.861 344.544C241.918 344.544 240.448 343.165 240.448 340.799C240.448 338.423 241.918 337.054 243.861 337.054C245.784 337.054 247.264 338.423 247.264 340.799ZM245.723 340.799C245.723 339.238 244.989 338.393 243.861 338.393C242.734 338.393 241.989 339.238 241.989 340.799C241.989 342.359 242.734 343.205 243.861 343.205C244.989 343.205 245.723 342.359 245.723 340.799ZM248.351 344.443V337.155H249.861V343.195H253.002V344.443H248.351ZM253.978 344.443V337.155H258.871V338.403H255.488V340.175H258.619V341.423H255.488V343.195H258.881V344.443H253.978Z" fill="white"/>
<path d="M134.958 30.8368C134.958 28.1485 137.138 25.9692 139.826 25.9692H331.219C333.907 25.9692 336.087 28.1485 336.087 30.8368V69.7942C336.087 72.4825 333.907 74.6619 331.219 74.6619H139.826C137.138 74.6619 134.958 72.4825 134.958 69.7942V30.8368Z" fill="#CACFDA"/>
<path d="M218.695 47.9427C218.609 47.1299 217.953 46.645 216.912 46.645C215.828 46.645 215.229 47.1441 215.215 47.8286C215.201 48.5702 215.985 48.9125 216.869 49.1121L217.796 49.3403C219.565 49.7396 220.891 50.638 220.891 52.3635C220.891 54.2602 219.408 55.4581 216.898 55.4581C214.402 55.4581 212.805 54.303 212.748 52.0926H214.83C214.901 53.1336 215.729 53.6613 216.869 53.6613C217.996 53.6613 218.723 53.1336 218.723 52.3635C218.723 51.6648 218.082 51.3368 216.955 51.0516L215.828 50.7806C214.089 50.3528 213.019 49.4829 213.019 47.9712C213.019 46.0888 214.673 44.8481 216.926 44.8481C219.208 44.8481 220.72 46.1173 220.748 47.9427H218.695ZM221.889 46.7591V44.9907H230.346V46.7591H227.18V55.3155H225.055V46.7591H221.889ZM232.128 55.3155H229.818L233.398 44.9907H236.15L239.715 55.3155H237.419L236.649 52.934H232.913L232.128 55.3155ZM233.455 51.2655H236.107L234.809 47.3152H234.738L233.455 51.2655ZM247.259 48.3135C246.974 47.3438 246.189 46.7448 245.063 46.7448C243.466 46.7448 242.382 47.9712 242.382 50.1389C242.382 52.3208 243.437 53.5615 245.077 53.5615C246.553 53.5615 247.43 52.7272 247.459 51.4223H245.22V49.8109H249.527V51.0943C249.527 53.8039 247.673 55.4581 245.063 55.4581C242.168 55.4581 240.2 53.4331 240.2 50.1674C240.2 46.8161 242.296 44.8481 245.02 44.8481C247.345 44.8481 249.141 46.2742 249.427 48.3135H247.259ZM251.095 55.3155V44.9907H258.026V46.7591H253.234V49.269H257.669V51.0373H253.234V53.5472H258.04V55.3155H251.095Z" fill="white"/>
</svg>
