<svg width="390" height="343" viewBox="0 0 390 343" fill="none" xmlns="http://www.w3.org/2000/svg">
<rect width="390" height="342.5" fill="#EDEFF3"/>
<path d="M37.25 307.5V254.5H351.5V307.5" stroke="#CACFDA"/>
<path d="M113.638 15.0079V16.712H114.268V17.2247H113.638V19.4415H113.013V15.0079H113.638ZM112.451 15.462C112.446 16.7902 111.929 17.9425 110.435 18.6749L110.083 18.1964C111.135 17.6691 111.699 16.9611 111.816 15.9698H110.337V15.462H112.451ZM114.785 17.0636C114.951 16.8878 115.161 16.795 115.391 16.795C115.791 16.795 116.133 17.0734 116.533 17.0734C116.758 17.0734 116.963 16.9806 117.124 16.8048V17.4005C116.958 17.5763 116.748 17.6691 116.519 17.6691C116.118 17.6691 115.776 17.3907 115.376 17.3907C115.151 17.3907 114.946 17.4835 114.785 17.6593V17.0636ZM119.326 16.3995C119.326 17.0294 119.653 17.7472 120.361 18.0792L120.015 18.548C119.541 18.3356 119.211 17.9156 119.023 17.42C118.833 17.9547 118.481 18.4064 117.979 18.6261L117.637 18.1427C118.359 17.8253 118.706 17.0685 118.711 16.3995V16.2286H117.793V15.7306H118.706V15.1056H119.331V15.7306H120.234V16.2286H119.326V16.3995ZM121.226 15.0079V16.7316H121.88V17.254H121.226V19.4513H120.601V15.0079H121.226ZM125.62 15.2667V15.6671C125.62 16.0822 125.62 16.5363 125.508 17.1564H126.094V17.6593H124.36V19.4562H123.735V17.6593H122.041V17.1564H124.878C124.99 16.5826 125 16.1481 125 15.7648H122.505V15.2667H125.62ZM130.107 17.8351V19.4513H129.487V18.3234H127.056V17.8351H130.107ZM130.107 15.0079V17.6349H129.487V17.0734H128.491C128.279 17.3029 127.964 17.4396 127.603 17.4396C126.929 17.4396 126.416 16.9757 126.421 16.3312C126.416 15.7013 126.929 15.2423 127.603 15.2472C127.964 15.2448 128.279 15.379 128.491 15.6036H129.487V15.0079H130.107ZM127.603 15.7697C127.256 15.7697 127.007 15.9845 127.012 16.3312C127.007 16.6974 127.256 16.9073 127.603 16.9073C127.93 16.9073 128.184 16.6974 128.184 16.3312C128.184 15.9845 127.93 15.7697 127.603 15.7697ZM128.75 16.5753H129.487V16.1066H128.755C128.767 16.1774 128.774 16.2531 128.774 16.3312C128.774 16.4166 128.765 16.4972 128.75 16.5753ZM134.736 17.2784V17.7765H130.684V17.2784H134.736ZM134.277 18.8751V19.3732H131.172V18.0743H131.797V18.8751H134.277ZM132.71 15.1447C133.682 15.1398 134.321 15.4865 134.326 16.0529C134.321 16.6193 133.682 16.9708 132.71 16.9708C131.729 16.9708 131.089 16.6193 131.089 16.0529C131.089 15.4865 131.729 15.1398 132.71 15.1447ZM132.71 15.6329C132.095 15.6378 131.733 15.7843 131.738 16.0529C131.733 16.3312 132.095 16.4679 132.71 16.4679C133.325 16.4679 133.682 16.3312 133.682 16.0529C133.682 15.7843 133.325 15.6378 132.71 15.6329ZM139.683 15.0079V16.2189H140.283V16.7316H139.683V18.2208H139.058V15.0079H139.683ZM138.335 15.3644V15.8624H136.953V16.9855C137.756 16.9806 138.198 16.9562 138.696 16.8488L138.76 17.3468C138.203 17.464 137.69 17.4884 136.704 17.4884H136.328V15.3644H138.335ZM139.844 18.8751V19.3732H136.802V17.879H137.422V18.8751H139.844ZM142.085 16.3995C142.085 17.0294 142.412 17.7472 143.12 18.0792L142.773 18.548C142.3 18.3356 141.97 17.9156 141.782 17.42C141.592 17.9547 141.24 18.4064 140.737 18.6261L140.396 18.1427C141.118 17.8253 141.465 17.0685 141.47 16.3995V16.2286H140.552V15.7306H141.465V15.1056H142.09V15.7306H142.993V16.2286H142.085V16.3995ZM143.984 15.0079V16.7316H144.639V17.254H143.984V19.4513H143.359V15.0079H143.984ZM148.306 15.0079V16.712H148.936V17.2247H148.306V19.4415H147.681V15.0079H148.306ZM147.119 15.462C147.114 16.7902 146.597 17.9425 145.103 18.6749L144.751 18.1964C145.803 17.6691 146.367 16.9611 146.484 15.9698H145.005V15.462H147.119ZM151.343 17.6056V18.0499H151.821V17.6056H152.397V18.9532C152.891 18.7335 153.101 18.3185 153.101 17.9132V17.5714H153.726V17.9132C153.721 18.3673 153.94 18.797 154.497 18.9777L154.175 19.4415C153.792 19.3097 153.545 19.0558 153.403 18.7384C153.254 19.046 153.01 19.3024 152.651 19.4415L152.397 19.0558V19.4025H150.767V17.6056H151.343ZM151.343 18.9288H151.821V18.5089H151.343V18.9288ZM151.514 15.174C152.08 15.174 152.532 15.4889 152.656 15.9601H153.398V15.0079H154.019V17.3615H153.398V16.4728H152.656C152.537 16.9537 152.083 17.2736 151.514 17.2736C150.83 17.2736 150.327 16.839 150.332 16.2189C150.327 15.6085 150.83 15.174 151.514 15.174ZM151.514 15.6866C151.167 15.6866 150.918 15.8917 150.923 16.2189C150.918 16.5558 151.167 16.7609 151.514 16.7657C151.851 16.7609 152.095 16.5558 152.095 16.2189C152.095 15.8917 151.851 15.6866 151.514 15.6866ZM158.203 16.2189V16.7072H155.098V15.1642H155.718V16.2189H158.203ZM158.657 17.1857V17.674H154.59V17.1857H158.657ZM158.232 18.8556V19.3536H155.059V18.0353H155.684V18.8556H158.232ZM162.549 15.3009V15.799H162.183V16.9855C162.332 16.9733 162.478 16.9586 162.617 16.9415L162.642 17.4005C161.807 17.5421 160.835 17.5568 160.132 17.5568L160.068 17.0538L160.542 17.049V15.799H160.181V15.3009H162.549ZM163.813 15.0079V17.7228H163.193V17.0587H162.646V16.5607H163.193V16.2189H162.646V15.7306H163.193V15.0079H163.813ZM162.295 17.7911C163.252 17.796 163.823 18.0939 163.828 18.6261C163.823 19.1437 163.252 19.4513 162.295 19.4513C161.343 19.4513 160.767 19.1437 160.767 18.6261C160.767 18.0939 161.343 17.796 162.295 17.7911ZM162.295 18.2697C161.699 18.2697 161.387 18.382 161.387 18.6261C161.387 18.8605 161.699 18.9777 162.295 18.9777C162.891 18.9777 163.208 18.8605 163.208 18.6261C163.208 18.382 162.891 18.2697 162.295 18.2697ZM161.143 17.0343L161.587 17.0197V15.799H161.143V17.0343ZM166.113 16.2189C166.113 16.9366 166.479 17.7032 167.227 18.0157L166.89 18.504C166.365 18.2819 166.003 17.84 165.806 17.298C165.603 17.8864 165.234 18.3746 164.712 18.6163L164.355 18.1232C165.093 17.796 165.474 16.9708 165.474 16.2189V15.9454H164.531V15.4376H167.041V15.9454H166.113V16.2189ZM168.11 15.0079V19.4513H167.48V15.0079H168.11ZM172.778 18.4454V18.9581H168.711V18.4454H170.425V17.7765H169.18V16.2823H171.694V15.7941H169.175V15.296H172.31V16.7706H169.805V17.2687H172.412V17.7765H171.045V18.4454H172.778ZM177.71 15.0079V16.2531H178.311V16.7657H177.71V18.1915H177.08V15.0079H177.71ZM176.499 15.34C176.499 16.5411 175.747 17.381 174.414 17.757L174.155 17.2638C175.149 16.9855 175.713 16.4703 175.815 15.8478H174.351V15.34H176.499ZM177.861 18.8751V19.3732H174.819V17.8644H175.449V18.8751H177.861ZM182.227 15.0079V19.4611H181.597V15.0079H182.227ZM179.814 15.3204C180.483 15.3204 180.981 15.9357 180.981 16.9025C180.981 17.879 180.483 18.4894 179.814 18.4894C179.131 18.4894 178.633 17.879 178.638 16.9025C178.633 15.9357 179.131 15.3204 179.814 15.3204ZM179.814 15.882C179.468 15.882 179.238 16.2433 179.238 16.9025C179.238 17.5665 179.468 17.923 179.814 17.923C180.151 17.923 180.381 17.5665 180.381 16.9025C180.381 16.2433 180.151 15.882 179.814 15.882ZM185.42 15.3058C186.123 15.3009 186.65 15.7599 186.65 16.3947C186.65 17.0343 186.123 17.4884 185.42 17.4884C184.717 17.4884 184.185 17.0343 184.185 16.3947C184.185 15.7599 184.717 15.3009 185.42 15.3058ZM185.42 15.8429C185.068 15.8429 184.8 16.048 184.805 16.3947C184.8 16.7462 185.068 16.9464 185.42 16.9464C185.771 16.9464 186.04 16.7462 186.045 16.3947C186.04 16.048 185.776 15.8429 185.42 15.8429ZM187.715 15.0079V19.4611H187.095V15.0079H187.715ZM183.999 18.045C184.79 18.0499 185.889 18.0353 186.841 17.9034L186.89 18.3527C185.903 18.5431 184.849 18.5529 184.072 18.5529L183.999 18.045ZM189.941 16.2189C189.937 16.8976 190.298 17.6788 191.03 18.0157L190.684 18.504C190.188 18.277 189.834 17.8229 189.639 17.2882C189.438 17.8766 189.075 18.3746 188.56 18.6163L188.198 18.1232C188.94 17.7765 189.312 16.9513 189.316 16.2189V15.9454H188.374V15.4376H190.835V15.9454H189.941V16.2189ZM191.807 15.0079V16.7023H192.461V17.2247H191.807V19.4513H191.182V15.0079H191.807ZM196.128 15.0079V16.712H196.758V17.2247H196.128V19.4415H195.503V15.0079H196.128ZM194.941 15.462C194.937 16.7902 194.419 17.9425 192.925 18.6749L192.573 18.1964C193.625 17.6691 194.189 16.9611 194.307 15.9698H192.827V15.462H194.941ZM201.841 15.0079V17.2687H201.221V16.1652H200.386V15.672H201.221V15.0079H201.841ZM201.841 17.4542V18.6407H199.507V18.9142H201.968V19.4025H198.892V18.1866H201.226V17.9327H198.887V17.4542H201.841ZM199.761 15.4767C199.756 16.0089 200.068 16.5216 200.776 16.7316L200.449 17.2101C199.973 17.0563 199.641 16.7584 199.448 16.3751C199.255 16.8024 198.904 17.1393 198.384 17.3029L198.062 16.8097C198.799 16.5948 199.126 16.0529 199.131 15.4767V15.1544H199.761V15.4767ZM206.133 15.0079V19.4513H205.508V15.0079H206.133ZM204.155 16.3995C204.155 17.0441 204.521 17.7716 205.259 18.0743L204.922 18.5529C204.417 18.3453 204.055 17.9205 203.853 17.4103C203.655 17.9523 203.291 18.4064 202.773 18.6212L202.441 18.1427C203.174 17.8253 203.535 17.0782 203.535 16.3995V16.2286H202.588V15.7306H203.53V15.1056H204.15V15.7306H205.078V16.2286H204.155V16.3995ZM209.385 16.8146V17.3126H208.521V18.0402C208.887 18.028 209.253 18.0035 209.6 17.9669L209.648 18.421C208.677 18.5724 207.666 18.5773 206.831 18.5773L206.758 18.0695C207.112 18.0719 207.498 18.0719 207.896 18.0597V17.3126H207.051V15.4034H209.36V15.8966H207.671V16.8146H209.385ZM210.474 15.0079V19.4611H209.854V15.0079H210.474ZM213.354 15.4034V16.0138H214.194V15.0079H214.81V19.4611H214.194V17.713H213.354V18.3673H211.226V15.4034H213.354ZM211.846 15.8868V17.8839H212.744V15.8868H211.846ZM213.354 17.2198H214.194V16.5167H213.354V17.2198ZM216.318 18.6407L215.898 20.0323H215.381L215.625 18.6407H216.318ZM218.564 19.0021H217.773L218.999 15.4669H219.941L221.162 19.0021H220.376L220.112 18.1866H218.833L218.564 19.0021ZM219.019 17.6154H219.927L219.482 16.2628H219.458L219.019 17.6154ZM221.729 17.0636C221.895 16.8878 222.104 16.795 222.334 16.795C222.734 16.795 223.076 17.0734 223.477 17.0734C223.701 17.0734 223.906 16.9806 224.067 16.8048V17.4005C223.901 17.5763 223.691 17.6691 223.462 17.6691C223.062 17.6691 222.72 17.3907 222.319 17.3907C222.095 17.3907 221.89 17.4835 221.729 17.6593V17.0636ZM226.074 19.0021H224.829V15.4669H226.089C227.153 15.4669 227.803 16.131 227.803 17.2296C227.803 18.338 227.153 19.0021 226.074 19.0021ZM225.562 18.3722H226.045C226.719 18.3722 227.07 18.0206 227.07 17.2296C227.07 16.4435 226.719 16.0968 226.05 16.0968H225.562V18.3722ZM231.748 15.2667V15.6671C231.748 16.0822 231.748 16.5363 231.636 17.1564H232.222V17.6593H230.488V19.4562H229.863V17.6593H228.169V17.1564H231.006C231.118 16.5826 231.128 16.1481 231.128 15.7648H228.633V15.2667H231.748ZM236.235 17.8351V19.4513H235.615V18.3234H233.184V17.8351H236.235ZM236.235 15.0079V17.6349H235.615V17.0734H234.619C234.407 17.3029 234.092 17.4396 233.73 17.4396C233.057 17.4396 232.544 16.9757 232.549 16.3312C232.544 15.7013 233.057 15.2423 233.73 15.2472C234.092 15.2448 234.407 15.379 234.619 15.6036H235.615V15.0079H236.235ZM233.73 15.7697C233.384 15.7697 233.135 15.9845 233.14 16.3312C233.135 16.6974 233.384 16.9073 233.73 16.9073C234.058 16.9073 234.312 16.6974 234.312 16.3312C234.312 15.9845 234.058 15.7697 233.73 15.7697ZM234.878 16.5753H235.615V16.1066H234.883C234.895 16.1774 234.902 16.2531 234.902 16.3312C234.902 16.4166 234.893 16.4972 234.878 16.5753ZM240.864 17.2784V17.7765H236.812V17.2784H240.864ZM240.405 18.8751V19.3732H237.3V18.0743H237.925V18.8751H240.405ZM238.838 15.1447C239.81 15.1398 240.449 15.4865 240.454 16.0529C240.449 16.6193 239.81 16.9708 238.838 16.9708C237.856 16.9708 237.217 16.6193 237.217 16.0529C237.217 15.4865 237.856 15.1398 238.838 15.1447ZM238.838 15.6329C238.223 15.6378 237.861 15.7843 237.866 16.0529C237.861 16.3312 238.223 16.4679 238.838 16.4679C239.453 16.4679 239.81 16.3312 239.81 16.0529C239.81 15.7843 239.453 15.6378 238.838 15.6329ZM246.138 15.0079V19.4513H245.552V15.0079H246.138ZM245.21 15.1056V19.256H244.619V17.7911H243.989V17.2882H244.619V16.6827H244.072C243.865 17.4152 243.416 18.0353 242.583 18.5284L242.217 18.089C243.118 17.5568 243.513 16.9098 243.599 16.0382H242.476V15.5353H244.219C244.219 15.7574 244.204 15.9723 244.18 16.1798H244.619V15.1056H245.21ZM250.132 15.0079V16.2189H250.732V16.7316H250.132V18.2208H249.507V15.0079H250.132ZM248.784 15.3644V15.8624H247.402V16.9855C248.206 16.9806 248.647 16.9562 249.146 16.8488L249.209 17.3468C248.652 17.464 248.14 17.4884 247.153 17.4884H246.777V15.3644H248.784ZM250.293 18.8751V19.3732H247.251V17.879H247.871V18.8751H250.293ZM252.632 15.6378C252.627 16.1945 252.944 16.7316 253.677 16.9513L253.364 17.4396C252.859 17.2784 252.51 16.9635 252.31 16.5558C252.109 16.9952 251.748 17.3395 251.226 17.5079L250.913 17.0197C251.655 16.7804 251.982 16.2042 251.982 15.6378V15.213H252.632V15.6378ZM254.648 17.8497V19.4513H254.023V18.3478H251.592V17.8497H254.648ZM254.648 15.0079V17.6593H254.023V15.0079H254.648ZM258.96 15.3644V15.8722H258.071C258.101 16.3239 258.423 16.7584 259.087 16.9464L258.794 17.4347C258.296 17.2906 257.949 17.0001 257.754 16.6241C257.559 17.0367 257.202 17.359 256.685 17.5128L256.372 17.0294C257.058 16.8268 257.388 16.3629 257.427 15.8722H256.533V15.3644H258.96ZM258.062 17.3273V18.0695C258.406 18.0524 258.75 18.0255 259.072 17.9816L259.116 18.4308C258.179 18.6066 257.178 18.6017 256.431 18.6066L256.348 18.0988C256.672 18.0988 257.046 18.0988 257.437 18.089V17.3273H258.062ZM260.537 16.7609V17.2833H259.932V19.4513H259.307V15.0079H259.932V16.7609H260.537ZM262.388 15.7013C262.383 16.2531 262.695 16.7902 263.398 17.0148L263.066 17.5079C262.588 17.3468 262.263 17.027 262.075 16.6241C261.877 17.0636 261.533 17.4078 261.03 17.5861L260.693 17.088C261.436 16.8488 261.753 16.2677 261.758 15.6622V15.2374H262.388V15.7013ZM264.468 17.8546V19.4513H263.848V18.3478H261.416V17.8546H264.468ZM264.468 15.0079V17.6544H263.848V16.3458H263.013V15.8331H263.848V15.0079H264.468ZM268.765 15.0079V17.3956H268.14V15.0079H268.765ZM266.406 17.5909V18.006H268.145V17.5909H268.765V19.4025H265.791V17.5909H266.406ZM266.406 18.8995H268.145V18.4894H266.406V18.8995ZM266.328 15.1935C267.021 15.1886 267.544 15.6232 267.544 16.2482C267.544 16.8536 267.021 17.2882 266.328 17.2882C265.635 17.2882 265.112 16.8536 265.112 16.2482C265.112 15.6232 265.635 15.1886 266.328 15.1935ZM266.328 15.7111C265.972 15.7111 265.718 15.9113 265.723 16.2482C265.718 16.5802 265.972 16.7755 266.328 16.7755C266.675 16.7755 266.929 16.5802 266.929 16.2482C266.929 15.9113 266.675 15.7111 266.328 15.7111ZM273.101 15.0079V19.4513H272.48V15.0079H273.101ZM270.22 15.4327V17.8204C270.82 17.8131 271.465 17.757 272.119 17.63L272.197 18.1427C271.416 18.3038 270.684 18.3575 269.995 18.3527H269.604V15.4327H270.22ZM277.192 15.0079V16.6583H277.847V17.1661H277.192V19.4611H276.567V15.0079H277.192ZM275.947 15.4181V15.921H274.482V17.8693C275.127 17.8619 275.659 17.8326 276.25 17.7277L276.318 18.2501C275.63 18.3673 275.024 18.3868 274.238 18.382H273.862V15.4181H275.947ZM278.584 19.046C278.354 19.046 278.169 18.8605 278.174 18.6359C278.169 18.4113 278.354 18.2306 278.584 18.2306C278.799 18.2306 278.989 18.4113 278.989 18.6359C278.989 18.8605 278.799 19.046 278.584 19.046Z" fill="#616161"/>
<path d="M159.981 264.121C159.981 263.119 160.794 262.306 161.796 262.306H227.497C228.5 262.306 229.312 263.119 229.312 264.121V279.185C229.312 280.187 228.5 281 227.497 281H161.796C160.794 281 159.981 280.187 159.981 279.185V264.121Z" fill="#CACFDA"/>
<path d="M181.389 270.794C181.304 270.225 180.862 269.876 180.265 269.876C179.461 269.876 178.934 270.495 178.934 271.577C178.934 272.687 179.468 273.278 180.258 273.278C180.848 273.278 181.282 272.95 181.389 272.395L182.471 272.402C182.35 273.356 181.553 274.224 180.243 274.224C178.863 274.224 177.845 273.256 177.845 271.577C177.845 269.897 178.884 268.93 180.243 268.93C181.432 268.93 182.328 269.613 182.471 270.794H181.389ZM187.936 271.577C187.936 273.256 186.89 274.224 185.531 274.224C184.157 274.224 183.118 273.249 183.118 271.577C183.118 269.897 184.157 268.93 185.531 268.93C186.89 268.93 187.936 269.897 187.936 271.577ZM186.847 271.577C186.847 270.474 186.328 269.876 185.531 269.876C184.734 269.876 184.207 270.474 184.207 271.577C184.207 272.68 184.734 273.278 185.531 273.278C186.328 273.278 186.847 272.68 186.847 271.577ZM193.003 269.001V274.153H192.078L189.815 270.88H189.772V274.153H188.705V269.001H189.644L191.893 272.274H191.943V269.001H193.003ZM196.668 270.474C196.625 270.068 196.298 269.826 195.778 269.826C195.237 269.826 194.939 270.075 194.931 270.417C194.924 270.787 195.316 270.958 195.757 271.057L196.219 271.171C197.102 271.371 197.764 271.819 197.764 272.68C197.764 273.626 197.024 274.224 195.771 274.224C194.526 274.224 193.729 273.648 193.7 272.545H194.739C194.775 273.064 195.188 273.328 195.757 273.328C196.319 273.328 196.682 273.064 196.682 272.68C196.682 272.331 196.362 272.168 195.8 272.025L195.237 271.89C194.369 271.677 193.836 271.242 193.836 270.488C193.836 269.549 194.661 268.93 195.785 268.93C196.924 268.93 197.678 269.563 197.693 270.474H196.668ZM203.179 271.577C203.179 273.256 202.133 274.224 200.774 274.224C199.4 274.224 198.362 273.249 198.362 271.577C198.362 269.897 199.4 268.93 200.774 268.93C202.133 268.93 203.179 269.897 203.179 271.577ZM202.09 271.577C202.09 270.474 201.571 269.876 200.774 269.876C199.977 269.876 199.45 270.474 199.45 271.577C199.45 272.68 199.977 273.278 200.774 273.278C201.571 273.278 202.09 272.68 202.09 271.577ZM203.948 274.153V269.001H205.015V273.271H207.236V274.153H203.948ZM207.926 274.153V269.001H211.384V269.883H208.993V271.136H211.206V272.018H208.993V273.271H211.391V274.153H207.926Z" fill="white"/>
<path d="M112.609 31.515C112.609 29.3262 114.383 27.5519 116.572 27.5519H272.398C274.587 27.5519 276.361 29.3262 276.361 31.515V63.2328C276.361 65.4215 274.587 67.1959 272.398 67.1959H116.572C114.383 67.1959 112.609 65.4215 112.609 63.2328V31.515Z" fill="#CACFDA"/>
<path d="M180.785 45.3712C180.715 44.7094 180.181 44.3146 179.333 44.3146C178.451 44.3146 177.963 44.721 177.952 45.2783C177.94 45.8821 178.579 46.1607 179.299 46.3233L180.053 46.509C181.493 46.8341 182.573 47.5656 182.573 48.9705C182.573 50.5147 181.365 51.49 179.322 51.49C177.29 51.49 175.989 50.5495 175.943 48.7499H177.638C177.696 49.5975 178.37 50.0271 179.299 50.0271C180.216 50.0271 180.808 49.5975 180.808 48.9705C180.808 48.4016 180.285 48.1345 179.368 47.9023L178.451 47.6817C177.034 47.3334 176.164 46.6252 176.164 45.3944C176.164 43.8618 177.51 42.8517 179.345 42.8517C181.203 42.8517 182.433 43.885 182.457 45.3712H180.785ZM183.385 44.4075V42.9678H190.271V44.4075H187.693V51.3739H185.963V44.4075H183.385ZM191.722 51.3739H189.841L192.755 42.9678H194.996L197.899 51.3739H196.029L195.402 49.4349H192.36L191.722 51.3739ZM192.802 48.0765H194.961L193.905 44.8603H193.847L192.802 48.0765ZM204.041 45.6731C203.809 44.8836 203.17 44.3959 202.253 44.3959C200.952 44.3959 200.07 45.3944 200.07 47.1592C200.07 48.9357 200.929 49.9458 202.264 49.9458C203.466 49.9458 204.18 49.2666 204.203 48.2042H202.38V46.8922H205.887V47.9372C205.887 50.1432 204.377 51.49 202.253 51.49C199.896 51.49 198.293 49.8413 198.293 47.1825C198.293 44.454 200 42.8517 202.218 42.8517C204.11 42.8517 205.573 44.0128 205.806 45.6731H204.041ZM207.164 51.3739V42.9678H212.807V44.4075H208.906V46.451H212.517V47.8907H208.906V49.9342H212.818V51.3739H207.164Z" fill="white"/>
<rect data-block-name="나" x="94.375" y="81.4375" width="62.0436" height="93.375" fill="#CACFDA"/>
<rect data-block-name="다" x="160.795" y="81.4375" width="68.0804" height="93.375" fill="#CACFDA"/>
<path data-block-name="가" d="M49.375 97.9435L76 81.4375H90.625V174.812H49.375V97.9435Z" fill="#CACFDA"/>
<rect data-block-name="라" width="62.0436" height="93.375" transform="matrix(-1 0 0 1 294.919 81.4375)" fill="#CACFDA"/>
<path data-block-name="마" d="M339.919 97.9435L313.294 81.4375H298.669V174.812H339.919V97.9435Z" fill="#CACFDA"/>
<rect data-block-name="사" x="94.375" y="183.627" width="62.0436" height="65.028" fill="#CACFDA"/>
<rect data-block-name="아" x="160.795" y="183.53" width="68.0804" height="65.125" fill="#CACFDA"/>
<path data-block-name="바" d="M49.375 183.53H90.625V248.655H49.375V183.53Z" fill="#CACFDA"/>
<rect data-block-name="자" width="62.0436" height="65.028" transform="matrix(-1 0 0 1 294.919 183.627)" fill="#CACFDA"/>
<path data-block-name="차" d="M339.919 183.53H298.669V248.655H339.919V183.53Z" fill="#CACFDA"/>
<rect data-block-name="바" x="49.375" y="183.53" width="11.375" height="65.125" fill="#CACFDA"/>
<rect data-block-name="차" x="328.544" y="183.53" width="11.375" height="65.125" fill="#CACFDA"/>
<rect data-block-name="B" x="94.375" y="260.515" width="62.0436" height="50.4872" fill="#CACFDA"/>
<path data-block-name="A" d="M49.375 260.44H90.625V311.002H49.375V260.44Z" fill="#CACFDA"/>
<rect data-block-name="C" width="62.0436" height="50.4872" transform="matrix(-1 0 0 1 294.919 260.515)" fill="#CACFDA"/>
<path data-block-name="D" d="M339.919 260.44H298.669V311.002H339.919V260.44Z" fill="#CACFDA"/>
<path d="M72.9541 211.604V214.925H74.2627V215.97H72.9541V220.491H71.7041V211.604H72.9541ZM67.4658 212.307V214.475H69.3115V212.307H70.5518V218.43H66.2256V212.307H67.4658ZM67.4658 217.425H69.3115V215.442H67.4658V217.425Z" fill="white"/>
<path d="M124.611 213.665C124.601 215.256 125.284 216.868 126.71 217.551L125.958 218.547C125.006 218.079 124.367 217.2 123.995 216.125C123.61 217.278 122.921 218.22 121.915 218.713L121.144 217.708C122.648 217.014 123.361 215.315 123.361 213.665V212.336H124.611V213.665ZM128.351 211.653V215.081H129.659V216.135H128.351V220.54H127.101V211.653H128.351Z" fill="white"/>
<path d="M263.12 214.075C263.111 215.432 263.833 216.995 265.298 217.668L264.605 218.645C263.614 218.191 262.906 217.283 262.515 216.213C262.115 217.39 261.387 218.386 260.357 218.87L259.634 217.883C261.118 217.19 261.861 215.54 261.87 214.075V213.528H259.986V212.512H264.908V213.528H263.12V214.075ZM266.851 211.653V215.042H268.159V216.086H266.851V220.54H265.601V211.653H266.851Z" fill="white"/>
<path d="M193.17 212.229C194.527 212.229 195.504 213.46 195.514 215.393C195.504 217.346 194.527 218.567 193.17 218.567C191.812 218.567 190.816 217.346 190.826 215.393C190.816 213.46 191.812 212.229 193.17 212.229ZM193.17 213.352C192.486 213.352 192.027 214.075 192.027 215.393C192.027 216.721 192.486 217.434 193.17 217.434C193.863 217.434 194.312 216.721 194.322 215.393C194.312 214.075 193.863 213.352 193.17 213.352ZM197.789 211.604V214.954H199.098V215.989H197.789V220.491H196.539V211.604H197.789Z" fill="white"/>
<path d="M318.449 214.388C318.449 215.647 319.103 217.083 320.519 217.747L319.826 218.684C318.879 218.26 318.219 217.42 317.843 216.429C317.463 217.498 316.759 218.401 315.754 218.841L315.07 217.874C316.515 217.239 317.209 215.725 317.218 214.388V214.046H315.382V213.05H317.209V211.8H318.459V213.05H320.265V214.046H318.449V214.388ZM322.248 211.604V215.052H323.556V216.096H322.248V220.491H320.998V211.604H322.248Z" fill="white"/>
<path d="M72.9541 123.637V127.045H74.2139V128.07H72.9541V132.504H71.7041V123.637H72.9541ZM70.5811 124.545C70.5713 127.201 69.5361 129.506 66.5479 130.971L65.8447 130.014C67.9492 128.959 69.0771 127.543 69.3115 125.561H66.3525V124.545H70.5811Z" fill="white"/>
<path d="M129.611 127.006V128.021H128.351V132.504H127.101V123.637H128.351V127.006H129.611ZM122.863 124.486V129.301C124 129.286 125.221 129.179 126.505 128.92L126.632 129.955C125.148 130.258 123.702 130.336 122.394 130.336H121.622V124.486H122.863Z" fill="white"/>
<path d="M197.789 123.637V126.938H199.098V127.953H197.789V132.543H196.539V123.637H197.789ZM195.299 124.457V125.463H192.369V129.359C193.658 129.345 194.723 129.286 195.904 129.076L196.041 130.121C194.664 130.355 193.453 130.395 191.881 130.385H191.129V124.457H195.299Z" fill="white"/>
<path d="M266.851 123.637V126.996H268.159V128.021H266.851V132.543H265.62V123.637H266.851ZM264.312 124.379V127.826H261.451V129.438C262.744 129.433 263.814 129.374 264.995 129.174L265.103 130.17C263.745 130.414 262.525 130.473 260.962 130.473H260.21V126.84H263.072V125.385H260.201V124.379H264.312Z" fill="white"/>
<path d="M319.787 124.477V130.355H315.519V124.477H319.787ZM316.75 125.453V129.369H318.547V125.453H316.75ZM322.248 123.637V126.986H323.556V128.021H322.248V132.523H320.998V123.637H322.248Z" fill="white"/>
<path d="M68.1885 289.221H66.6064L69.0576 282.151H70.9424L73.3838 289.221H71.8115L71.2842 287.59H68.7256L68.1885 289.221ZM69.0967 286.447H70.9131L70.0244 283.742H69.9756L69.0967 286.447Z" fill="white"/>
<path d="M122.809 289.258V282.188H125.621C127.184 282.188 127.965 282.94 127.965 284.005C127.965 284.835 127.428 285.352 126.696 285.518V285.587C127.496 285.626 128.248 286.26 128.248 287.305C128.248 288.428 127.409 289.258 125.807 289.258H122.809ZM125.514 288.048C126.364 288.048 126.725 287.696 126.725 287.169C126.725 286.573 126.276 286.153 125.553 286.153H124.274V288.048H125.514ZM125.407 285.147C126.022 285.147 126.481 284.805 126.481 284.239C126.481 283.731 126.11 283.38 125.436 283.38H124.274V285.147H125.407Z" fill="white"/>
<path d="M265.601 284.649C265.484 283.868 264.878 283.389 264.058 283.389C262.954 283.389 262.232 284.239 262.232 285.723C262.232 287.247 262.964 288.057 264.048 288.057C264.859 288.057 265.454 287.608 265.601 286.846L267.085 286.856C266.919 288.165 265.826 289.356 264.029 289.356C262.134 289.356 260.738 288.028 260.738 285.723C260.738 283.419 262.163 282.091 264.029 282.091C265.659 282.091 266.89 283.028 267.085 284.649H265.601Z" fill="white"/>
<path d="M318.874 289.221H316.383V282.151H318.903C321.032 282.151 322.331 283.479 322.331 285.676C322.331 287.893 321.032 289.221 318.874 289.221ZM317.848 287.961H318.815C320.163 287.961 320.866 287.258 320.866 285.676C320.866 284.104 320.163 283.41 318.825 283.41H317.848V287.961Z" fill="white"/>
</svg>
