<svg width="641" height="583" viewBox="0 0 641 583" fill="none" xmlns="http://www.w3.org/2000/svg">
<rect width="641" height="583" fill="#EDEFF3"/>
<path d="M115 76.75V482H526.5V76.75" stroke="#CACFDA"/>
<path d="M164 76.75V429H476V76.75" stroke="#CACFDA"/>
<path data-block-name="C2" d="M51.8507 461.342V406.56H82.1943V415.351H97.0019V441.561L62.1271 461.342H51.8507Z" fill="#CACFDA"/>
<path data-block-name="C2" d="M52.3904 404.762V345.422L57.0835 345.422H72.8622V356.329L97.137 373.098V400.122L82.2188 400.122V404.762L52.3904 404.762Z" fill="#CACFDA"/>
<path data-block-name="G2" d="M97.137 50.125V75.3693H81.2774V101.307H97.137V121.89H52.3094V50.125H97.137Z" fill="#CACFDA"/>
<path data-block-name="F2" d="M97.137 125.89V152.589H81.2774V177.823H97.137V197.848H52.3094V125.89H97.137Z" fill="#CACFDA"/>
<path data-block-name="E2" d="M97.1369 201.848V225.135H81.2773V245.966H97.1369V265.79H52.3093V201.848H97.1369Z" fill="#CACFDA"/>
<path data-block-name="D2" d="M97.1369 269.79V296.368H81.2773V316.245H97.1369V341.422H52.3093V269.79H97.1369Z" fill="#CACFDA"/>
<path data-block-name="B2" d="M157.131 486.472H160.157H185.498V503.815H215.252V496.655H218.908V486.472H240.972V500.792H232.903V503.815H237.441V515.589H240.972V529.75H156.375V520.203H160.157H163.057V509.225V502.065H157.131V496.655V486.472Z" fill="#CACFDA"/>
<path data-block-name="A2" d="M245.972 501.669V486.472H267.876V493.41H270.898V504.477H290.662V493.41H293.935V486.472H321.883V529.75H245.972V512.901H248.489V501.669H245.972Z" fill="#CACFDA"/>
<path data-block-name="T2" d="M326.883 486.472H329.778H358.229V504.244H380.134V486.472H402.668V501.776H399.017V513.624H402.668V529.75H326.883V486.472Z" fill="#CACFDA"/>
<path data-block-name="S2" d="M413.768 517.873V486.472H435.169L438.19 496.722H441.77V503.881H457.577V486.472H483.384L491.819 509.738V525.194H497.988V529.75H407.668V517.873H410.369H413.768Z" fill="#CACFDA"/>
<path data-block-name="Q2" d="M583.777 331.354H545.683V309.814H565.313V287.086H545.683V262.278H583.777V331.354Z" fill="#CACFDA"/>
<path data-block-name="Q2" d="M584.5 258.667H545.683V236.418H563.82V193.776H584.5V258.667Z" fill="#CACFDA"/>
<path data-block-name="R2" d="M559.225 399.154H546.141V430.417L576.671 447.5H584.812V391.49H559.225V399.154Z" fill="#CACFDA"/>
<path data-block-name="R2" d="M584.812 372.26V337.351H576.742L545.683 348.579V382.04H558.943V388.707H573.499V372.26H584.812Z" fill="#CACFDA"/>
<rect data-block-name="G1" x="135.234" y="182.285" width="18.7993" height="72.0346" fill="#CACFDA"/>
<rect data-block-name="H1" x="135.234" y="121.875" width="18.7993" height="58.4096" fill="#CACFDA"/>
<rect data-block-name="F1" x="135.234" y="256.319" width="18.7993" height="60.5138" fill="#CACFDA"/>
<rect data-block-name="E1" x="134.734" y="318.833" width="18.7993" height="65.3715" fill="#CACFDA"/>
<path data-block-name="D1" d="M132.605 386.205H154.779V415.145L138.944 441.955H132.605V386.205Z" fill="#CACFDA"/>
<rect data-block-name="S1" width="18.7993" height="72.0346" transform="matrix(-1 0 0 1 506.276 182.285)" fill="#CACFDA"/>
<rect data-block-name="R1" width="18.7993" height="58.4096" transform="matrix(-1 0 0 1 506.276 121.875)" fill="#CACFDA"/>
<rect data-block-name="T1" width="18.7993" height="60.5138" transform="matrix(-1 0 0 1 506.276 256.319)" fill="#CACFDA"/>
<rect data-block-name="U1" width="18.7993" height="65.3715" transform="matrix(-1 0 0 1 506.198 318.833)" fill="#CACFDA"/>
<path data-block-name="V1" d="M508.542 386.205H486.368V415.145L502.202 441.955H508.542V386.205Z" fill="#CACFDA"/>
<path data-block-name="A1" d="M283.639 435.845H287.395H353.502V457.038H283.639V452.026V435.845Z" fill="#CACFDA"/>
<path data-block-name="B1" d="M223.12 457.038V436.27H228.733H279.639V457.038H223.12Z" fill="#CACFDA"/>
<path data-block-name="X1" d="M414.021 457.038V436.27H408.408H357.502V457.038H414.021Z" fill="#CACFDA"/>
<path data-block-name="C1" d="M160.25 457.038V436.27H182.784H219.12V457.038H160.25Z" fill="#CACFDA"/>
<path data-block-name="W1" d="M476.212 457.038V436.27H453.678H417.341V457.038H476.212Z" fill="#CACFDA"/>
<path data-block-name="1" d="M174.5 146.288L206.5 128.5H238.5V244H174.5V146.288Z" fill="#CACFDA"/>
<path data-block-name="4" d="M463.75 146.288L431.75 128.5H399.75V244H463.75V146.288Z" fill="#CACFDA"/>
<rect data-block-name="2" x="244.081" y="117.75" width="72.2451" height="126.25" fill="#CACFDA"/>
<rect data-block-name="3" width="72.2451" height="126.25" transform="matrix(-1 0 0 1 394.152 117.75)" fill="#CACFDA"/>
<path data-block-name="5" d="M195.75 353H238.5V283.5H195.75V353Z" fill="#CACFDA"/>
<path data-block-name="8" d="M442.483 353H399.733V283.5H442.483V353Z" fill="#CACFDA"/>
<rect data-block-name="6" width="72.2451" height="69.5" transform="matrix(1 0 0 -1 244.081 353)" fill="#CACFDA"/>
<rect data-block-name="7" x="394.152" y="353" width="72.2451" height="69.5" transform="rotate(-180 394.152 353)" fill="#CACFDA"/>
<path d="M251.314 385.838C251.314 384.23 252.618 382.926 254.227 382.926H384.67C386.278 382.926 387.582 384.23 387.582 385.838V410.013C387.582 411.622 386.278 412.926 384.67 412.926H254.227C252.618 412.926 251.314 411.622 251.314 410.013V385.838Z" fill="#CACFDA"/>
<path d="M297.862 396.499C297.725 395.586 297.017 395.026 296.058 395.026C294.767 395.026 293.922 396.02 293.922 397.756C293.922 399.537 294.779 400.485 296.046 400.485C296.994 400.485 297.691 399.96 297.862 399.069L299.598 399.08C299.404 400.611 298.125 402.004 296.023 402.004C293.808 402.004 292.175 400.451 292.175 397.756C292.175 395.06 293.842 393.507 296.023 393.507C297.931 393.507 299.37 394.604 299.598 396.499H297.862ZM308.369 397.756C308.369 400.451 306.69 402.004 304.509 402.004C302.305 402.004 300.637 400.439 300.637 397.756C300.637 395.06 302.305 393.507 304.509 393.507C306.69 393.507 308.369 395.06 308.369 397.756ZM306.621 397.756C306.621 395.985 305.788 395.026 304.509 395.026C303.23 395.026 302.385 395.985 302.385 397.756C302.385 399.526 303.23 400.485 304.509 400.485C305.788 400.485 306.621 399.526 306.621 397.756ZM316.5 393.621V401.89H315.015L311.384 396.636H311.315V401.89H309.602V393.621H311.11L314.718 398.875H314.798V393.621H316.5ZM322.381 395.985C322.313 395.334 321.788 394.946 320.954 394.946C320.086 394.946 319.606 395.346 319.595 395.894C319.583 396.488 320.212 396.762 320.92 396.922L321.662 397.105C323.078 397.424 324.14 398.144 324.14 399.526C324.14 401.045 322.952 402.004 320.942 402.004C318.944 402.004 317.665 401.079 317.619 399.309H319.286C319.344 400.142 320.006 400.565 320.92 400.565C321.822 400.565 322.404 400.142 322.404 399.526C322.404 398.966 321.89 398.703 320.988 398.475L320.086 398.258C318.693 397.915 317.836 397.219 317.836 396.008C317.836 394.501 319.161 393.507 320.965 393.507C322.793 393.507 324.003 394.524 324.026 395.985H322.381ZM332.831 397.756C332.831 400.451 331.152 402.004 328.971 402.004C326.767 402.004 325.099 400.439 325.099 397.756C325.099 395.06 326.767 393.507 328.971 393.507C331.152 393.507 332.831 395.06 332.831 397.756ZM331.084 397.756C331.084 395.985 330.25 395.026 328.971 395.026C327.692 395.026 326.847 395.985 326.847 397.756C326.847 399.526 327.692 400.485 328.971 400.485C330.25 400.485 331.084 399.526 331.084 397.756ZM334.064 401.89V393.621H335.777V400.474H339.34V401.89H334.064ZM340.448 401.89V393.621H345.998V395.038H342.161V397.047H345.713V398.464H342.161V400.474H346.01V401.89H340.448Z" fill="white"/>
<path d="M317.896 364.022V371.092H316.421V365.418H316.382L314.761 366.434V365.135L316.509 364.022H317.896ZM319.575 371.092V364.022H324.234V365.232H321.04V366.951H323.931V368.162H321.04V371.092H319.575Z" fill="#616161"/>
<path d="M314.141 472.342L314.131 471.277L316.67 468.943C317.334 468.308 317.686 467.918 317.686 467.361C317.686 466.736 317.207 466.346 316.563 466.346C315.899 466.346 315.469 466.766 315.469 467.439H314.072C314.063 466.053 315.088 465.174 316.582 465.174C318.096 465.174 319.102 466.033 319.102 467.264C319.102 468.064 318.711 468.728 317.256 470.047L316.182 471.092V471.131H319.199V472.342H314.141ZM320.283 472.342V465.271H324.942V466.482H321.748V468.201H324.639V469.412H321.748V472.342H320.283Z" fill="#616161"/>
<path d="M139.616 113.75L139.606 112.686L142.145 110.352C142.809 109.717 143.161 109.326 143.161 108.77C143.161 108.145 142.682 107.754 142.038 107.754C141.374 107.754 140.944 108.174 140.944 108.848H139.548C139.538 107.461 140.563 106.582 142.057 106.582C143.571 106.582 144.577 107.441 144.577 108.672C144.577 109.473 144.186 110.137 142.731 111.455L141.657 112.5V112.539H144.675V113.75H139.616ZM145.759 113.75V106.68H150.417V107.891H147.223V109.609H150.114V110.82H147.223V113.75H145.759Z" fill="#616161"/>
<path d="M491.53 113.75L491.52 112.686L494.059 110.352C494.723 109.717 495.075 109.326 495.075 108.77C495.075 108.145 494.596 107.754 493.952 107.754C493.287 107.754 492.858 108.174 492.858 108.848H491.461C491.452 107.461 492.477 106.582 493.971 106.582C495.485 106.582 496.491 107.441 496.491 108.672C496.491 109.473 496.1 110.137 494.645 111.455L493.571 112.5V112.539H496.588V113.75H491.53ZM497.672 113.75V106.68H502.33V107.891H499.137V109.609H502.028V110.82H499.137V113.75H497.672Z" fill="#616161"/>
<path d="M316.616 547.358C315.064 547.358 313.95 546.498 313.921 545.268H315.405C315.435 545.795 315.943 546.147 316.626 546.147C317.329 546.147 317.837 545.746 317.827 545.18C317.837 544.604 317.319 544.194 316.489 544.194H315.835V543.11H316.489C317.183 543.11 317.671 542.729 317.671 542.172C317.671 541.635 317.261 541.264 316.636 541.264C316.011 541.264 315.493 541.616 315.474 542.153H314.068C314.087 540.932 315.191 540.092 316.636 540.092C318.11 540.092 319.097 540.961 319.087 542.084C319.097 542.875 318.54 543.442 317.749 543.578V543.637C318.784 543.764 319.36 544.399 319.351 545.278C319.36 546.489 318.208 547.358 316.616 547.358ZM320.425 547.26V540.19H325.083V541.401H321.89V543.119H324.78V544.33H321.89V547.26H320.425Z" fill="#616161"/>
<path d="M71.5942 41.5977C70.0415 41.5977 68.9282 40.7383 68.8989 39.5078H70.3833C70.4126 40.0352 70.9204 40.3867 71.604 40.3867C72.3071 40.3867 72.8149 39.9863 72.8052 39.4199C72.8149 38.8438 72.2974 38.4336 71.4673 38.4336H70.813V37.3496H71.4673C72.1606 37.3496 72.6489 36.9688 72.6489 36.4121C72.6489 35.875 72.2388 35.5039 71.6138 35.5039C70.9888 35.5039 70.4712 35.8555 70.4517 36.3926H69.0454C69.0649 35.1719 70.1685 34.332 71.6138 34.332C73.0884 34.332 74.0747 35.2012 74.0649 36.3242C74.0747 37.1152 73.5181 37.6816 72.7271 37.8184V37.877C73.7622 38.0039 74.3384 38.6387 74.3286 39.5176C74.3384 40.7285 73.186 41.5977 71.5942 41.5977ZM75.4028 41.5V34.4297H80.061V35.6406H76.8677V37.3594H79.7583V38.5703H76.8677V41.5H75.4028Z" fill="#616161"/>
<path d="M561.898 180.382C560.346 180.382 559.232 179.523 559.203 178.292H560.688C560.717 178.82 561.225 179.171 561.908 179.171C562.611 179.171 563.119 178.771 563.109 178.204C563.119 177.628 562.602 177.218 561.771 177.218H561.117V176.134H561.771C562.465 176.134 562.953 175.753 562.953 175.197C562.953 174.66 562.543 174.288 561.918 174.288C561.293 174.288 560.775 174.64 560.756 175.177H559.35C559.369 173.956 560.473 173.117 561.918 173.117C563.393 173.117 564.379 173.986 564.369 175.109C564.379 175.9 563.822 176.466 563.031 176.603V176.662C564.066 176.788 564.643 177.423 564.633 178.302C564.643 179.513 563.49 180.382 561.898 180.382ZM565.707 180.285V173.214H570.365V174.425H567.172V176.144H570.062V177.355H567.172V180.285H565.707Z" fill="#616161"/>
<path d="M208.39 175.517V186.122H206.178V177.611H206.119L203.687 179.135V177.187L206.309 175.517H208.39Z" fill="white"/>
<path d="M217.154 323.896C214.942 323.896 213.331 322.593 213.287 320.762H215.426C215.47 321.597 216.231 322.153 217.154 322.153C218.253 322.153 219.029 321.377 219.029 320.278C219.029 319.15 218.238 318.374 217.125 318.359C216.334 318.359 215.777 318.652 215.455 319.253H213.463L214.034 313.145H220.567V314.946H215.851L215.558 317.627H215.646C216.041 317.1 216.832 316.733 217.77 316.733C219.718 316.733 221.168 318.184 221.168 320.22C221.168 322.358 219.542 323.896 217.154 323.896Z" fill="white"/>
<path d="M276.461 184.66L276.446 183.063L280.255 179.562C281.251 178.61 281.778 178.024 281.778 177.189C281.778 176.252 281.06 175.666 280.093 175.666C279.097 175.666 278.453 176.296 278.453 177.307H276.358C276.343 175.227 277.881 173.908 280.123 173.908C282.393 173.908 283.902 175.197 283.902 177.043C283.902 178.244 283.316 179.24 281.133 181.218L279.522 182.785V182.844H284.048V184.66H276.461Z" fill="white"/>
<path d="M280.32 323.896C278.123 323.882 276.043 322.578 276.043 318.696C276.043 315.122 277.757 312.998 280.408 312.998C282.547 312.998 283.997 314.346 284.217 316.089H282.049C281.873 315.342 281.258 314.888 280.408 314.888C278.973 314.888 278.211 316.191 278.196 318.271H278.299C278.782 317.334 279.837 316.777 281.009 316.777C282.913 316.777 284.334 318.213 284.334 320.205C284.334 322.358 282.708 323.911 280.32 323.896ZM280.306 322.153C281.39 322.153 282.195 321.333 282.195 320.264C282.195 319.209 281.419 318.374 280.335 318.374C279.251 318.374 278.431 319.224 278.416 320.264C278.431 321.304 279.222 322.153 280.306 322.153Z" fill="white"/>
<path d="M358 184.807C355.671 184.807 354.001 183.518 353.957 181.672H356.184C356.228 182.463 356.989 182.99 358.015 182.99C359.069 182.99 359.831 182.39 359.817 181.54C359.831 180.676 359.055 180.06 357.81 180.06H356.828V178.435H357.81C358.85 178.435 359.582 177.863 359.582 177.028C359.582 176.223 358.967 175.666 358.029 175.666C357.092 175.666 356.316 176.193 356.286 176.999H354.177C354.206 175.168 355.861 173.908 358.029 173.908C360.241 173.908 361.721 175.212 361.706 176.896C361.721 178.083 360.886 178.933 359.699 179.138V179.226C361.252 179.416 362.116 180.368 362.102 181.686C362.116 183.503 360.388 184.807 358 184.807Z" fill="white"/>
<path d="M355.461 323.75L359.928 315.02V314.946H354.728V313.145H362.214V314.976L357.746 323.75H355.461Z" fill="white"/>
<path d="M427.48 184.247V182.504L431.962 175.517H434.731V182.475H436.079V184.247H434.731V186.122H432.636V184.247H427.48ZM429.707 182.475H432.666V177.934H432.563L429.707 182.387V182.475Z" fill="white"/>
<path d="M421.1 323.896C418.683 323.896 416.94 322.622 416.94 320.894C416.94 319.561 417.966 318.477 419.284 318.271V318.198C418.141 317.979 417.35 317.012 417.35 315.854C417.35 314.199 418.932 312.998 421.1 312.998C423.268 312.998 424.85 314.199 424.865 315.854C424.85 317.026 424.045 317.979 422.931 318.198V318.271C424.22 318.477 425.26 319.561 425.26 320.894C425.26 322.622 423.517 323.896 421.1 323.896ZM421.1 322.212C422.214 322.212 422.961 321.582 422.961 320.674C422.961 319.751 422.184 319.077 421.1 319.077C420.016 319.077 419.225 319.751 419.24 320.674C419.225 321.582 419.972 322.212 421.1 322.212ZM421.1 317.524C422.038 317.524 422.712 316.924 422.712 316.074C422.712 315.254 422.052 314.668 421.1 314.668C420.148 314.668 419.504 315.239 419.504 316.074C419.504 316.924 420.163 317.524 421.1 317.524Z" fill="white"/>
<path d="M139.134 143.06L149.739 143.06L149.739 145.257L145.345 145.257L145.345 149.857L149.739 149.857L149.739 152.069L139.134 152.069L139.134 149.857L143.528 149.857L143.528 145.257L139.134 145.257L139.134 143.06ZM149.739 158.367L139.134 158.367L139.134 156.155L147.644 156.155L147.644 156.097L146.121 153.665L148.069 153.665L149.739 156.287L149.739 158.367Z" fill="white"/>
<path d="M502.376 158.441L491.771 158.441L491.771 154.28C491.771 151.863 493.133 150.487 495.228 150.487C496.678 150.487 497.733 151.153 498.245 152.362L502.376 150.106L502.376 152.537L498.612 154.559L498.612 156.243L502.376 156.243L502.376 158.441ZM496.825 156.243L496.825 154.691C496.825 153.387 496.283 152.757 495.228 152.757C494.159 152.757 493.573 153.387 493.573 154.691L493.573 156.243L496.825 156.243ZM491.771 144.451L502.376 144.451L502.376 146.663L493.866 146.663L493.866 146.722L495.389 149.154L493.441 149.154L491.771 146.531L491.771 144.451Z" fill="white"/>
<path d="M494.803 219.891C493.968 219.979 493.47 220.653 493.47 221.722C493.47 222.836 493.983 223.451 494.686 223.465C495.448 223.48 495.799 222.674 496.004 221.766L496.239 220.814C496.649 218.998 497.572 217.635 499.344 217.635C501.292 217.635 502.523 219.159 502.523 221.737C502.523 224.3 501.336 225.941 499.066 226L499.066 223.861C500.135 223.788 500.677 222.938 500.677 221.766C500.677 220.609 500.135 219.862 499.344 219.862C498.626 219.862 498.289 220.521 497.996 221.678L497.718 222.836C497.279 224.623 496.385 225.721 494.832 225.721C492.899 225.721 491.624 224.022 491.624 221.708C491.624 219.364 492.928 217.811 494.803 217.782L494.803 219.891ZM491.771 211.688L502.376 211.688L502.376 213.9L493.866 213.9L493.866 213.959L495.389 216.39L493.441 216.39L491.771 213.768L491.771 211.688Z" fill="white"/>
<path d="M493.587 294.428L491.771 294.428L491.771 285.741L493.587 285.741L493.587 288.993L502.376 288.993L502.376 291.176L493.587 291.176L493.587 294.428ZM491.771 279.867L502.376 279.867L502.376 282.079L493.866 282.079L493.866 282.138L495.389 284.569L493.441 284.569L491.771 281.947L491.771 279.867Z" fill="white"/>
<path d="M491.693 352.859L491.693 350.647L498.578 350.647C500.907 350.647 502.445 352.405 502.445 355.042C502.445 357.678 500.907 359.422 498.578 359.422L491.693 359.422L491.693 357.224L498.402 357.224C499.618 357.224 500.511 356.36 500.511 355.042C500.511 353.709 499.618 352.859 498.402 352.859L491.693 352.859ZM491.693 344.348L502.298 344.348L502.298 346.56L493.787 346.56L493.787 346.619L495.311 349.051L493.363 349.051L491.693 346.428L491.693 344.348Z" fill="white"/>
<path d="M492.349 408.821L500.435 406.243L500.435 406.141L492.349 403.548L492.349 401.116L502.955 404.778L502.955 407.605L492.349 411.282L492.349 408.821ZM492.349 395.403L502.955 395.403L502.955 397.615L494.444 397.615L494.444 397.674L495.967 400.105L494.019 400.105L492.349 397.483L492.349 395.403Z" fill="white"/>
<path d="M439.035 451.5L436.002 440.895H438.405L440.192 448.307H440.28L442.228 440.895H444.293L446.242 448.321H446.33L448.117 440.895H450.519L447.487 451.5H445.333L443.312 444.498H443.224L441.188 451.5H439.035ZM456.159 440.895V451.5H453.947V442.989H453.888L451.457 444.513V442.564L454.079 440.895H456.159Z" fill="white"/>
<path d="M380.034 440.895L382.202 444.542H382.275L384.458 440.895H386.948L383.711 446.197L387.021 451.5H384.472L382.275 447.853H382.202L380.005 451.5H377.47L380.796 446.197L377.529 440.895H380.034ZM392.793 440.895V451.5H390.581V442.989H390.522L388.091 444.513V442.564L390.713 440.895H392.793Z" fill="white"/>
<path d="M312.587 451.5H310.214L313.89 440.895H316.718L320.38 451.5H318.021L317.23 449.054H313.392L312.587 451.5ZM313.949 447.34H316.674L315.341 443.282H315.267L313.949 447.34ZM325.594 440.895L325.594 451.5H323.383L323.383 442.989H323.324L320.892 444.513V442.564L323.514 440.895H325.594Z" fill="white"/>
<path d="M243.982 451.5L243.982 440.895H248.201C250.545 440.895 251.717 442.022 251.717 443.619C251.717 444.864 250.911 445.641 249.812 445.89V445.992C251.013 446.051 252.141 447.003 252.141 448.57C252.141 450.255 250.882 451.5 248.479 451.5H243.982ZM248.04 449.684C249.314 449.684 249.856 449.156 249.856 448.365C249.856 447.472 249.182 446.842 248.098 446.842H246.179V449.684H248.04ZM247.879 445.333C248.802 445.333 249.49 444.82 249.49 443.971C249.49 443.209 248.933 442.682 247.923 442.682H246.179V445.333H247.879ZM258.045 440.895L258.045 451.5H255.833V442.989H255.774L253.343 444.513V442.564L255.965 440.895H258.045Z" fill="white"/>
<path d="M188.726 444.586C188.55 443.414 187.642 442.696 186.411 442.696C184.756 442.696 183.672 443.971 183.672 446.197C183.672 448.482 184.771 449.698 186.397 449.698C187.612 449.698 188.506 449.024 188.726 447.882L190.952 447.896C190.703 449.859 189.063 451.646 186.367 451.646C183.526 451.646 181.431 449.654 181.431 446.197C181.431 442.74 183.569 440.748 186.367 440.748C188.814 440.748 190.659 442.154 190.952 444.586H188.726ZM197.002 440.895L197.002 451.5H194.79V442.989H194.732L192.3 444.513V442.564L194.922 440.895H197.002Z" fill="white"/>
<path d="M146.326 217.233C147.322 216.94 147.937 216.134 147.937 214.977C147.937 213.336 146.678 212.223 144.451 212.223C142.21 212.223 140.935 213.307 140.935 214.991C140.935 216.507 141.792 217.408 143.133 217.438L143.133 215.138L144.788 215.138L144.788 219.562L143.47 219.562C140.686 219.562 138.987 217.657 138.987 214.977C138.987 212.003 141.067 209.982 144.422 209.982C147.864 209.982 149.886 212.135 149.886 214.933C149.886 217.32 148.421 219.166 146.326 219.459L146.326 217.233ZM149.739 225.685L139.134 225.685L139.134 223.473L147.644 223.473L147.644 223.414L146.121 220.983L148.069 220.983L149.739 223.605L149.739 225.685Z" fill="white"/>
<path d="M139.134 279.735L149.739 279.735L149.739 286.723L147.923 286.723L147.923 281.933L145.345 281.933L145.345 286.268L143.528 286.268L143.528 281.933L139.134 281.933L139.134 279.735ZM149.739 292.685L139.134 292.685L139.134 290.473L147.644 290.473L147.644 290.414L146.121 287.982L148.069 287.982L149.739 290.604L149.739 292.685Z" fill="white"/>
<path d="M138.634 344.48L149.239 344.48L149.239 351.599L147.423 351.599L147.423 346.677L144.845 346.677L144.845 351.233L143.028 351.233L143.028 346.677L140.45 346.677L140.45 351.614L138.634 351.614L138.634 344.48ZM149.239 357.825L138.634 357.825L138.634 355.613L147.144 355.613L147.144 355.554L145.621 353.123L147.569 353.123L149.239 355.745L149.239 357.825Z" fill="white"/>
<path d="M138.192 398.43L138.192 394.694L148.797 394.694L148.797 398.474C148.797 401.667 146.805 403.615 143.509 403.615C140.184 403.615 138.192 401.667 138.192 398.43ZM140.082 396.892L140.082 398.342C140.082 400.363 141.136 401.418 143.509 401.418C145.868 401.418 146.908 400.363 146.908 398.356L146.908 396.892L140.082 396.892ZM148.797 409.724L138.192 409.724L138.192 407.512L146.703 407.512L146.703 407.453L145.179 405.021L147.127 405.021L148.797 407.644L148.797 409.724Z" fill="white"/>
<path d="M571.197 369.258L560.591 369.258L560.591 365.098C560.591 362.681 561.953 361.304 564.048 361.304C565.498 361.304 566.553 361.97 567.066 363.179L571.197 360.923L571.197 363.355L567.432 365.376L567.432 367.061L571.197 367.061L571.197 369.258ZM565.645 367.061L565.645 365.508C565.645 364.204 565.103 363.574 564.048 363.574C562.979 363.574 562.393 364.204 562.393 365.508L562.393 367.061L565.645 367.061ZM571.197 359.839L569.6 359.854L566.099 356.045C565.147 355.049 564.561 354.522 563.726 354.522C562.788 354.522 562.202 355.239 562.202 356.206C562.202 357.202 562.832 357.847 563.843 357.847L563.843 359.942C561.763 359.956 560.445 358.418 560.445 356.177C560.445 353.906 561.734 352.398 563.579 352.398C564.781 352.398 565.777 352.984 567.754 355.166L569.322 356.778L569.38 356.778L569.38 352.251L571.197 352.251L571.197 359.839Z" fill="white"/>
<path d="M571.425 425.293L560.82 425.293L560.82 421.133C560.82 418.716 562.182 417.339 564.277 417.339C565.727 417.339 566.782 418.005 567.294 419.214L571.425 416.958L571.425 419.389L567.661 421.411L567.661 423.096L571.425 423.096L571.425 425.293ZM565.874 423.096L565.874 421.543C565.874 420.239 565.332 419.609 564.277 419.609C563.208 419.609 562.622 420.239 562.622 421.543L562.622 423.096L565.874 423.096ZM571.425 415.874L569.829 415.888L566.328 412.08C565.375 411.084 564.79 410.556 563.955 410.556C563.017 410.556 562.431 411.274 562.431 412.241C562.431 413.237 563.061 413.882 564.072 413.882L564.072 415.976C561.992 415.991 560.673 414.453 560.673 412.212C560.673 409.941 561.962 408.432 563.808 408.432C565.009 408.432 566.005 409.018 567.983 411.201L569.55 412.812L569.609 412.812L569.609 408.286L571.425 408.286L571.425 415.874Z" fill="white"/>
<path d="M575.601 302.17L575.601 300.28L576.641 299.475C576.048 298.969 575.155 298.684 573.975 298.684C571.705 298.684 570.474 299.753 570.474 301.394C570.474 303.034 571.705 304.118 573.975 304.118C576.246 304.118 577.476 303.034 577.476 301.394C577.476 301.181 577.454 300.976 577.418 300.778L575.601 302.17ZM573.975 296.443C575.865 296.443 577.323 297.087 578.238 298.127L580.157 296.618L580.157 298.684L579.088 299.533C579.315 300.105 579.425 300.734 579.425 301.394C579.425 304.221 577.418 306.359 573.975 306.359C570.518 306.359 568.526 304.221 568.526 301.394C568.526 298.596 570.518 296.443 573.975 296.443ZM579.278 294.904L577.682 294.919L574.181 291.11C573.228 290.114 572.642 289.587 571.807 289.587C570.87 289.587 570.284 290.305 570.284 291.272C570.284 292.268 570.914 292.912 571.925 292.912L571.925 295.007C569.845 295.022 568.526 293.484 568.526 291.242C568.526 288.972 569.815 287.463 571.661 287.463C572.862 287.463 573.858 288.049 575.836 290.232L577.403 291.843L577.462 291.843L577.462 287.317L579.278 287.317L579.278 294.904Z" fill="white"/>
<path d="M575.601 231.575L575.601 229.686L576.641 228.88C576.048 228.375 575.155 228.089 573.975 228.089C571.705 228.089 570.474 229.158 570.474 230.799C570.474 232.44 571.705 233.524 573.975 233.524C576.246 233.524 577.476 232.44 577.476 230.799C577.476 230.587 577.454 230.381 577.418 230.184L575.601 231.575ZM573.975 225.848C575.865 225.848 577.323 226.492 578.238 227.532L580.157 226.024L580.157 228.089L579.088 228.939C579.315 229.51 579.425 230.14 579.425 230.799C579.425 233.626 577.418 235.765 573.975 235.765C570.518 235.765 568.526 233.626 568.526 230.799C568.526 228.001 570.518 225.848 573.975 225.848ZM579.278 224.31L577.682 224.324L574.181 220.516C573.228 219.52 572.642 218.992 571.807 218.992C570.87 218.992 570.284 219.71 570.284 220.677C570.284 221.673 570.914 222.318 571.925 222.318L571.925 224.412C569.845 224.427 568.526 222.889 568.526 220.648C568.526 218.377 569.815 216.868 571.661 216.868C572.862 216.868 573.858 217.454 575.836 219.637L577.403 221.248L577.462 221.248L577.462 216.722L579.278 216.722L579.278 224.31Z" fill="white"/>
<path d="M70.6573 428.849C71.8292 428.673 72.547 427.765 72.547 426.534C72.547 424.879 71.2726 423.795 69.046 423.795C66.7609 423.795 65.545 424.894 65.545 426.52C65.545 427.736 66.2189 428.629 67.3614 428.849L67.3468 431.075C65.3839 430.826 63.5968 429.186 63.5968 426.49C63.5968 423.649 65.589 421.554 69.046 421.554C72.5031 421.554 74.4952 423.693 74.4952 426.49C74.4952 428.937 73.089 430.782 70.6573 431.075L70.6573 428.849ZM63.7433 432.555L65.34 432.54L68.8409 436.349C69.7931 437.345 70.379 437.872 71.214 437.872C72.1515 437.872 72.7374 437.154 72.7374 436.188C72.7374 435.192 72.1075 434.547 71.0968 434.547L71.0968 432.452C73.1769 432.438 74.4952 433.976 74.4952 436.217C74.4952 438.487 73.2062 439.996 71.3605 439.996C70.1593 439.996 69.1632 439.41 67.1857 437.228L65.6183 435.616L65.5597 435.616L65.5597 440.143L63.7433 440.143L63.7433 432.555Z" fill="white"/>
<path d="M60.5402 300.398L60.5402 296.663L71.1456 296.663L71.1456 300.442C71.1456 303.635 69.1534 305.584 65.8575 305.584C62.5323 305.584 60.5402 303.635 60.5402 300.398ZM62.4298 298.86L62.4298 300.31C62.4298 302.332 63.4845 303.386 65.8575 303.386C68.2159 303.386 69.256 302.332 69.256 300.325L69.256 298.86L62.4298 298.86ZM60.5402 307.122L62.1368 307.107L65.6378 310.916C66.59 311.912 67.1759 312.439 68.0109 312.439C68.9484 312.439 69.5343 311.721 69.5343 310.754C69.5343 309.758 68.9044 309.114 67.8937 309.114L67.8937 307.019C69.9738 307.004 71.2921 308.543 71.2921 310.784C71.2921 313.054 70.0031 314.563 68.1573 314.563C66.9562 314.563 65.9601 313.977 63.9825 311.795L62.4152 310.183L62.3566 310.183L62.3566 314.71L60.5402 314.71L60.5402 307.122Z" fill="white"/>
<path d="M60.5402 225.718L71.1456 225.718L71.1456 232.837L69.3292 232.837L69.3292 227.915L66.7511 227.915L66.7511 232.471L64.9347 232.471L64.9347 227.915L62.3566 227.915L62.3566 232.852L60.5402 232.852L60.5402 225.718ZM60.5402 234.492L62.1368 234.478L65.6378 238.286C66.59 239.283 67.1759 239.81 68.0109 239.81C68.9484 239.81 69.5343 239.092 69.5343 238.125C69.5343 237.129 68.9044 236.485 67.8937 236.485L67.8937 234.39C69.9738 234.375 71.2921 235.913 71.2921 238.155C71.2921 240.425 70.0031 241.934 68.1573 241.934C66.9562 241.934 65.9601 241.348 63.9825 239.165L62.4152 237.554L62.3566 237.554L62.3566 242.08L60.5402 242.08L60.5402 234.492Z" fill="white"/>
<path d="M60.5403 153.966L71.1458 153.966L71.1458 160.953L69.3293 160.953L69.3293 156.163L66.7512 156.163L66.7512 160.499L64.9348 160.499L64.9348 156.163L60.5403 156.163L60.5403 153.966ZM60.5403 162.345L62.137 162.33L65.6379 166.139C66.5901 167.135 67.176 167.662 68.011 167.662C68.9485 167.662 69.5344 166.945 69.5344 165.978C69.5344 164.982 68.9045 164.337 67.8938 164.337L67.8938 162.242C69.9739 162.228 71.2922 163.766 71.2922 166.007C71.2922 168.278 70.0032 169.786 68.1575 169.786C66.9563 169.786 65.9602 169.2 63.9827 167.018L62.4153 165.406L62.3567 165.406L62.3567 169.933L60.5403 169.933L60.5403 162.345Z" fill="white"/>
<path d="M67.7327 83.8763C68.7288 83.5833 69.344 82.7776 69.344 81.6204C69.344 79.9798 68.0842 78.8665 65.8577 78.8665C63.6165 78.8665 62.342 79.9505 62.342 81.635C62.342 83.1512 63.199 84.052 64.5393 84.0813L64.5393 81.7815L66.1946 81.7815L66.1946 86.2054L64.8762 86.2054C62.093 86.2054 60.3938 84.3011 60.3938 81.6204C60.3938 78.6468 62.4739 76.6253 65.8284 76.6253C69.2708 76.6253 71.2922 78.7786 71.2922 81.5764C71.2922 83.9641 69.8274 85.8098 67.7327 86.1028L67.7327 83.8763ZM60.5403 87.7581L62.137 87.7434L65.6379 91.552C66.5901 92.5481 67.176 93.0755 68.011 93.0755C68.9485 93.0755 69.5344 92.3577 69.5344 91.3909C69.5344 90.3948 68.9045 89.7503 67.8938 89.7503L67.8938 87.6556C69.9739 87.6409 71.2922 89.179 71.2922 91.4202C71.2922 93.6907 70.0032 95.1995 68.1575 95.1995C66.9563 95.1995 65.9602 94.6136 63.9827 92.4309L62.4153 90.8196L62.3567 90.8196L62.3567 95.346L60.5403 95.346L60.5403 87.7581Z" fill="white"/>
<path d="M70.9949 378.384C72.1667 378.208 72.8845 377.3 72.8845 376.07C72.8845 374.414 71.6101 373.33 69.3835 373.33C67.0984 373.33 65.8826 374.429 65.8826 376.055C65.8826 377.271 66.5564 378.164 67.699 378.384L67.6843 380.611C65.7214 380.362 63.9343 378.721 63.9343 376.026C63.9343 373.184 65.9265 371.089 69.3835 371.089C72.8406 371.089 74.8328 373.228 74.8328 376.026C74.8328 378.472 73.4265 380.318 70.9949 380.611L70.9949 378.384ZM64.0808 382.09L65.6775 382.075L69.1785 385.884C70.1306 386.88 70.7166 387.408 71.5515 387.408C72.489 387.408 73.075 386.69 73.075 385.723C73.075 384.727 72.4451 384.082 71.4343 384.082L71.4343 381.988C73.5144 381.973 74.8328 383.511 74.8328 385.752C74.8328 388.023 73.5437 389.532 71.698 389.532C70.4968 389.532 69.5007 388.946 67.5232 386.763L65.9558 385.152L65.8972 385.152L65.8972 389.678L64.0808 389.678L64.0808 382.09Z" fill="white"/>
<path d="M190.214 521.595L190.214 510.99H194.433C196.776 510.99 197.948 512.118 197.948 513.714C197.948 514.959 197.143 515.736 196.044 515.985V516.087C197.245 516.146 198.373 517.098 198.373 518.665C198.373 520.35 197.113 521.595 194.711 521.595H190.214ZM194.271 519.779C195.546 519.779 196.088 519.251 196.088 518.46C196.088 517.567 195.414 516.937 194.33 516.937H192.411V519.779H194.271ZM194.11 515.428C195.033 515.428 195.722 514.915 195.722 514.066C195.722 513.304 195.165 512.777 194.154 512.777H192.411V515.428H194.11ZM199.706 521.595L199.691 519.999L203.5 516.498C204.496 515.545 205.023 514.959 205.023 514.124C205.023 513.187 204.306 512.601 203.339 512.601C202.343 512.601 201.698 513.231 201.698 514.242H199.603C199.589 512.162 201.127 510.843 203.368 510.843C205.639 510.843 207.147 512.132 207.147 513.978C207.147 515.179 206.561 516.175 204.379 518.153L202.768 519.72V519.779H207.294V521.595H199.706Z" fill="white"/>
<path d="M276.632 521.595H274.259L277.936 510.99H280.763L284.425 521.595H282.067L281.276 519.149H277.438L276.632 521.595ZM277.994 517.435H280.719L279.386 513.377H279.313L277.994 517.435ZM285.568 521.595L285.553 519.999L289.362 516.498C290.358 515.545 290.885 514.959 290.885 514.124C290.885 513.187 290.167 512.601 289.201 512.601C288.204 512.601 287.56 513.231 287.56 514.242H285.465C285.451 512.162 286.989 510.843 289.23 510.843C291.5 510.843 293.009 512.132 293.009 513.978C293.009 515.179 292.423 516.175 290.241 518.153L288.629 519.72V519.779H293.156V521.595H285.568Z" fill="white"/>
<path d="M355.862 512.806V510.99H364.548V512.806H361.296L361.296 521.595H359.114L359.114 512.806H355.862ZM365.852 521.595L365.837 519.999L369.646 516.498C370.642 515.545 371.169 514.959 371.169 514.124C371.169 513.187 370.452 512.601 369.485 512.601C368.489 512.601 367.844 513.231 367.844 514.242H365.749C365.735 512.162 367.273 510.843 369.514 510.843C371.785 510.843 373.293 512.132 373.293 513.978C373.293 515.179 372.707 516.175 370.525 518.153L368.914 519.72V519.779H373.44V521.595H365.852Z" fill="white"/>
<path d="M450.176 514.022C450.088 513.187 449.415 512.689 448.345 512.689C447.232 512.689 446.617 513.202 446.602 513.905C446.587 514.666 447.393 515.018 448.301 515.223L449.253 515.457C451.07 515.868 452.432 516.79 452.432 518.563C452.432 520.511 450.909 521.742 448.331 521.742C445.767 521.742 444.126 520.555 444.068 518.285H446.207C446.28 519.354 447.129 519.896 448.301 519.896C449.458 519.896 450.206 519.354 450.206 518.563C450.206 517.845 449.546 517.508 448.389 517.215L447.232 516.937C445.445 516.498 444.346 515.604 444.346 514.051C444.346 512.118 446.045 510.843 448.36 510.843C450.704 510.843 452.256 512.147 452.286 514.022H450.176ZM453.809 521.595L453.794 519.999L457.603 516.498C458.599 515.545 459.126 514.959 459.126 514.124C459.126 513.187 458.409 512.601 457.442 512.601C456.446 512.601 455.801 513.231 455.801 514.242H453.707C453.692 512.162 455.23 510.843 457.471 510.843C459.742 510.843 461.25 512.132 461.25 513.978C461.25 515.179 460.665 516.175 458.482 518.153L456.871 519.72V519.779H461.397V521.595H453.809Z" fill="white"/>
<path d="M233.068 54.1811C233.068 51.872 234.94 50 237.249 50H401.648C403.957 50 405.829 51.872 405.829 54.1811V87.644C405.829 89.9531 403.957 91.8251 401.648 91.8251H237.249C234.94 91.8251 233.068 89.9531 233.068 87.644V54.1811Z" fill="#CACFDA"/>
<path d="M304.994 69.0796C304.921 68.3814 304.357 67.9649 303.463 67.9649C302.532 67.9649 302.018 68.3936 302.005 68.9816C301.993 69.6186 302.667 69.9126 303.426 70.084L304.222 70.28C305.741 70.623 306.881 71.3947 306.881 72.8769C306.881 74.5061 305.607 75.535 303.451 75.535C301.307 75.535 299.935 74.5428 299.886 72.6442H301.675C301.736 73.5384 302.446 73.9916 303.426 73.9916C304.394 73.9916 305.019 73.5384 305.019 72.8769C305.019 72.2767 304.467 71.995 303.5 71.75L302.532 71.5172C301.038 71.1497 300.119 70.4025 300.119 69.1041C300.119 67.4872 301.54 66.4215 303.475 66.4215C305.435 66.4215 306.734 67.5117 306.758 69.0796H304.994ZM307.738 68.0629V66.544H315.002V68.0629H312.283V75.4125H310.457V68.0629H307.738ZM316.533 75.4125H314.549L317.623 66.544H319.987L323.05 75.4125H321.078L320.416 73.3669H317.207L316.533 75.4125ZM317.672 71.9337H319.951L318.836 68.5406H318.775L317.672 71.9337ZM329.53 69.3981C329.285 68.5651 328.611 68.0506 327.643 68.0506C326.271 68.0506 325.34 69.1041 325.34 70.966C325.34 72.8402 326.247 73.9059 327.656 73.9059C328.923 73.9059 329.677 73.1893 329.701 72.0684H327.778V70.6843H331.477V71.7867C331.477 74.1141 329.885 75.535 327.643 75.535C325.157 75.535 323.466 73.7956 323.466 70.9905C323.466 68.1119 325.267 66.4215 327.607 66.4215C329.603 66.4215 331.147 67.6464 331.392 69.3981H329.53ZM332.825 75.4125V66.544H338.778V68.0629H334.662V70.2188H338.472V71.7377H334.662V73.8936H338.79V75.4125H332.825Z" fill="white"/>
</svg>
