<svg width="448" height="441" viewBox="0 0 448 441" fill="none" xmlns="http://www.w3.org/2000/svg">
<rect width="448" height="441" fill="#EDEFF3"/>
<path d="M124.672 27.1447C124.672 24.4828 126.83 22.3248 129.492 22.3248H319.008C321.67 22.3248 323.828 24.4828 323.828 27.1447V65.7201C323.828 68.382 321.67 70.54 319.008 70.54H129.492C126.83 70.54 124.672 68.382 124.672 65.7201V27.1447Z" fill="#CACFDA"/>
<path d="M207.587 44.1319C207.502 43.327 206.853 42.8469 205.822 42.8469C204.749 42.8469 204.156 43.3411 204.142 44.0189C204.127 44.7532 204.904 45.0921 205.78 45.2898L206.697 45.5157C208.448 45.9111 209.762 46.8008 209.762 48.5094C209.762 50.3875 208.293 51.5736 205.808 51.5736C203.337 51.5736 201.755 50.4298 201.699 48.2411H203.76C203.831 49.2719 204.65 49.7944 205.78 49.7944C206.895 49.7944 207.615 49.2719 207.615 48.5094C207.615 47.8175 206.98 47.4927 205.864 47.2103L204.749 46.942C203.026 46.5183 201.967 45.657 201.967 44.1601C201.967 42.2962 203.605 41.0677 205.836 41.0677C208.095 41.0677 209.592 42.3244 209.621 44.1319H207.587ZM210.75 42.9599V41.2089H219.124V42.9599H215.989V51.4324H213.885V42.9599H210.75ZM220.889 51.4324H218.601L222.146 41.2089H224.871L228.401 51.4324H226.128L225.365 49.0742H221.666L220.889 51.4324ZM222.202 47.4221H224.829L223.544 43.5106H223.473L222.202 47.4221ZM235.871 44.499C235.589 43.5388 234.812 42.9457 233.697 42.9457C232.115 42.9457 231.042 44.1601 231.042 46.3065C231.042 48.467 232.087 49.6955 233.711 49.6955C235.172 49.6955 236.041 48.8695 236.069 47.5774H233.852V45.9817H238.116V47.2526C238.116 49.9356 236.281 51.5736 233.697 51.5736C230.83 51.5736 228.881 49.5684 228.881 46.3348C228.881 43.0164 230.957 41.0677 233.654 41.0677C235.956 41.0677 237.735 42.4798 238.018 44.499H235.871ZM239.67 51.4324V41.2089H246.533V42.9599H241.788V45.4451H246.18V47.1961H241.788V49.6814H246.547V51.4324H239.67Z" fill="white"/>
<rect data-block-name="1" x="49.75" y="87" width="79.75" height="108.5" fill="#CACFDA"/>
<rect data-block-name="2" x="139.5" y="87" width="79.75" height="108.5" fill="#CACFDA"/>
<rect data-block-name="3" x="229.25" y="87" width="79.75" height="108.5" fill="#CACFDA"/>
<rect data-block-name="4" x="319" y="87" width="79.75" height="108.5" fill="#CACFDA"/>
<rect data-block-name="1" x="90.5" y="87" width="39" height="108.5" fill="#CACFDA"/>
<rect data-block-name="4" x="319" y="87" width="39" height="108.5" fill="#CACFDA"/>
<rect data-block-name="5" x="49.75" y="226.594" width="79.75" height="93.4064" fill="#CACFDA"/>
<rect data-block-name="6" x="139.5" y="226.594" width="79.75" height="93.4064" fill="#CACFDA"/>
<rect data-block-name="7" x="229.25" y="226.594" width="79.75" height="93.4064" fill="#CACFDA"/>
<rect data-block-name="8" x="319" y="226.594" width="79.75" height="93.4064" fill="#CACFDA"/>
<rect data-block-name="5" x="90.5" y="226.594" width="39" height="93.4064" fill="#CACFDA"/>
<rect data-block-name="8" x="319" y="226.594" width="39" height="93.4064" fill="#CACFDA"/>
<rect data-block-name="A" x="55" y="345.89" width="68" height="57.7032" fill="#CACFDA"/>
<rect data-block-name="B" x="145" y="345.89" width="68" height="57.7032" fill="#CACFDA"/>
<rect data-block-name="C" x="235" y="345.89" width="68" height="57.7032" fill="#CACFDA"/>
<rect data-block-name="D" x="325" y="345.89" width="68" height="57.7032" fill="#CACFDA"/>
<path d="M91.8926 135.023V147.75H89.2383V137.537H89.168L86.25 139.365V137.027L89.3965 135.023H91.8926Z" fill="white"/>
<path d="M174.884 147.75L174.866 145.834L179.437 141.633C180.632 140.49 181.265 139.787 181.265 138.785C181.265 137.66 180.403 136.957 179.243 136.957C178.048 136.957 177.274 137.713 177.274 138.926H174.761C174.743 136.43 176.589 134.848 179.278 134.848C182.003 134.848 183.813 136.395 183.813 138.609C183.813 140.051 183.11 141.246 180.491 143.619L178.558 145.5V145.57H183.989V147.75H174.884Z" fill="white"/>
<path d="M269.09 147.926C266.295 147.926 264.291 146.379 264.238 144.164H266.91C266.963 145.113 267.877 145.746 269.107 145.746C270.373 145.746 271.287 145.025 271.27 144.006C271.287 142.969 270.355 142.23 268.861 142.23H267.684V140.279H268.861C270.109 140.279 270.988 139.594 270.988 138.592C270.988 137.625 270.25 136.957 269.125 136.957C268 136.957 267.068 137.59 267.033 138.557H264.502C264.537 136.359 266.523 134.848 269.125 134.848C271.779 134.848 273.555 136.412 273.537 138.434C273.555 139.857 272.553 140.877 271.129 141.123V141.229C272.992 141.457 274.029 142.6 274.012 144.182C274.029 146.361 271.955 147.926 269.09 147.926Z" fill="white"/>
<path d="M353.751 145.5V143.408L359.13 135.023H362.452V143.373H364.069V145.5H362.452V147.75H359.938V145.5H353.751ZM356.423 143.373H359.974V137.924H359.851L356.423 143.268V143.373Z" fill="white"/>
<path d="M89.6602 279.973C87.0059 279.973 85.0723 278.408 85.0195 276.211H87.5859C87.6387 277.213 88.5527 277.881 89.6602 277.881C90.9785 277.881 91.9102 276.949 91.9102 275.631C91.9102 274.277 90.9609 273.346 89.625 273.328C88.6758 273.328 88.0078 273.68 87.6211 274.4H85.2305L85.916 267.07H93.7559V269.232H88.0957L87.7441 272.449H87.8496C88.3242 271.816 89.2734 271.377 90.3984 271.377C92.7363 271.377 94.4766 273.117 94.4766 275.56C94.4766 278.127 92.5254 279.973 89.6602 279.973Z" fill="white"/>
<path d="M179.516 279.973C176.879 279.955 174.383 278.391 174.383 273.732C174.383 269.443 176.439 266.894 179.621 266.894C182.188 266.894 183.928 268.512 184.191 270.603H181.59C181.379 269.707 180.641 269.162 179.621 269.162C177.898 269.162 176.984 270.727 176.967 273.223H177.09C177.67 272.098 178.936 271.43 180.342 271.43C182.627 271.43 184.332 273.152 184.332 275.543C184.332 278.127 182.381 279.99 179.516 279.973ZM179.498 277.881C180.799 277.881 181.766 276.896 181.766 275.613C181.766 274.348 180.834 273.346 179.533 273.346C178.232 273.346 177.248 274.365 177.23 275.613C177.248 276.861 178.197 277.881 179.498 277.881Z" fill="white"/>
<path d="M265.442 279.797L270.804 269.32V269.232H264.563V267.07H273.546V269.268L268.185 279.797H265.442Z" fill="white"/>
<path d="M358.866 279.973C355.966 279.973 353.874 278.443 353.874 276.369C353.874 274.769 355.104 273.469 356.687 273.223V273.135C355.315 272.871 354.366 271.711 354.366 270.322C354.366 268.336 356.265 266.894 358.866 266.894C361.468 266.894 363.366 268.336 363.384 270.322C363.366 271.728 362.399 272.871 361.063 273.135V273.223C362.61 273.469 363.858 274.769 363.858 276.369C363.858 278.443 361.767 279.973 358.866 279.973ZM358.866 277.951C360.202 277.951 361.099 277.195 361.099 276.105C361.099 274.998 360.167 274.189 358.866 274.189C357.565 274.189 356.616 274.998 356.634 276.105C356.616 277.195 357.513 277.951 358.866 277.951ZM358.866 272.326C359.991 272.326 360.8 271.605 360.8 270.586C360.8 269.602 360.009 268.898 358.866 268.898C357.724 268.898 356.95 269.584 356.95 270.586C356.95 271.605 357.741 272.326 358.866 272.326Z" fill="white"/>
<path d="M85.7393 381.242H82.8916L87.3037 368.515H90.6963L95.0908 381.242H92.2607L91.3115 378.306H86.7061L85.7393 381.242ZM87.374 376.25H90.6436L89.0439 371.381H88.9561L87.374 376.25Z" fill="white"/>
<path d="M174.342 381.242V368.515H179.404C182.217 368.515 183.623 369.869 183.623 371.785C183.623 373.279 182.656 374.211 181.338 374.51V374.633C182.779 374.703 184.133 375.846 184.133 377.726C184.133 379.748 182.621 381.242 179.738 381.242H174.342ZM179.211 379.062C180.74 379.062 181.391 378.43 181.391 377.48C181.391 376.408 180.582 375.652 179.281 375.652H176.979V379.062H179.211ZM179.018 373.842C180.125 373.842 180.951 373.226 180.951 372.207C180.951 371.293 180.283 370.66 179.07 370.66H176.979V373.842H179.018Z" fill="white"/>
<path d="M272.067 372.945C271.856 371.539 270.767 370.678 269.29 370.678C267.304 370.678 266.003 372.207 266.003 374.879C266.003 377.621 267.321 379.08 269.272 379.08C270.731 379.08 271.804 378.271 272.067 376.9L274.739 376.918C274.44 379.273 272.472 381.418 269.237 381.418C265.827 381.418 263.313 379.027 263.313 374.879C263.313 370.73 265.88 368.34 269.237 368.34C272.173 368.34 274.388 370.027 274.739 372.945H272.067Z" fill="white"/>
<path d="M358.244 381.242H353.762V368.515H358.297C362.129 368.515 364.467 370.906 364.467 374.861C364.467 378.851 362.129 381.242 358.244 381.242ZM356.398 378.974H358.139C360.564 378.974 361.83 377.709 361.83 374.861C361.83 372.031 360.564 370.783 358.156 370.783H356.398V378.974Z" fill="white"/>
</svg>
